<svg width="61" height="60" viewBox="0 0 61 60" fill="none" xmlns="http://www.w3.org/2000/svg">
<g id="ATENDIMENTO">
<g id="Group">
<path id="Vector" d="M3.74012 36.38C3.58012 36.38 3.42012 36.3399 3.28012 36.2599C2.94012 36.0799 2.74012 35.6999 2.78012 35.2999L3.60012 27.56C3.68012 26.86 3.54012 26.1399 3.22012 25.4799C2.48012 24 2.12012 22.46 2.12012 20.9C2.12012 13.34 10.5401 7.19995 20.9001 7.19995C31.2601 7.19995 39.6801 13.34 39.6801 20.9C39.6801 28.46 31.2601 34.5999 20.9001 34.5999C17.6401 34.5999 14.4401 33.9799 11.6201 32.82C10.3601 32.2999 8.90012 32.5 7.82012 33.36L4.32012 36.16C4.16012 36.32 3.96012 36.38 3.74012 36.38ZM20.9201 9.15995C11.6401 9.15995 4.08012 14.44 4.08012 20.92C4.08012 22.18 4.38012 23.4399 4.96012 24.6399C5.44012 25.6399 5.64012 26.72 5.52012 27.78L4.94012 33.2L6.62012 31.86C8.24012 30.56 10.4401 30.24 12.3801 31.04C14.9601 32.1 17.9001 32.66 20.9001 32.66C30.1801 32.66 37.7401 27.38 37.7401 20.9C37.7601 14.42 30.2001 9.15995 20.9201 9.15995Z" fill="#1D6687"/>
<path id="Vector_2" d="M12.56 23.3799C13.8303 23.3799 14.86 22.3502 14.86 21.0799C14.86 19.8097 13.8303 18.7799 12.56 18.7799C11.2898 18.7799 10.26 19.8097 10.26 21.0799C10.26 22.3502 11.2898 23.3799 12.56 23.3799Z" fill="#1D6687"/>
<path id="Vector_3" d="M20.8 23.3799C22.0703 23.3799 23.1 22.3502 23.1 21.0799C23.1 19.8097 22.0703 18.7799 20.8 18.7799C19.5297 18.7799 18.5 19.8097 18.5 21.0799C18.5 22.3502 19.5297 23.3799 20.8 23.3799Z" fill="#1D6687"/>
<path id="Vector_4" d="M29.06 23.3799C30.3303 23.3799 31.36 22.3502 31.36 21.0799C31.36 19.8097 30.3303 18.7799 29.06 18.7799C27.7898 18.7799 26.76 19.8097 26.76 21.0799C26.76 22.3502 27.7898 23.3799 29.06 23.3799Z" fill="#1D6687"/>
<path id="Vector_5" d="M48.1201 40.48C49.3903 40.48 50.4201 39.4503 50.4201 38.18C50.4201 36.9097 49.3903 35.88 48.1201 35.88C46.8498 35.88 45.8201 36.9097 45.8201 38.18C45.8201 39.4503 46.8498 40.48 48.1201 40.48Z" fill="#1D6687"/>
<path id="Vector_6" d="M39.8801 40.48C41.1503 40.48 42.1801 39.4503 42.1801 38.18C42.1801 36.9097 41.1503 35.88 39.8801 35.88C38.6098 35.88 37.5801 36.9097 37.5801 38.18C37.5801 39.4503 38.6098 40.48 39.8801 40.48Z" fill="#1D6687"/>
<path id="Vector_7" d="M31.6201 40.48C32.8903 40.48 33.9201 39.4503 33.9201 38.18C33.9201 36.9097 32.8903 35.88 31.6201 35.88C30.3498 35.88 29.3201 36.9097 29.3201 38.18C29.3201 39.4503 30.3498 40.48 31.6201 40.48Z" fill="#1D6687"/>
<path id="Vector_8" d="M56.9402 53.4799C56.7202 53.4799 56.5002 53.3999 56.3402 53.2599L52.8402 50.4599C51.7602 49.5999 50.3202 49.3999 49.0402 49.9199C46.2402 51.0799 43.0202 51.6999 39.7602 51.6999C29.4002 51.6999 20.9802 45.5599 20.9802 37.9999C20.9802 36.3199 21.4002 34.6599 22.2602 33.0599C22.4202 32.7599 22.7002 32.5799 23.0402 32.5399C29.3002 31.9999 34.5402 29.0599 36.7402 24.9199C36.9002 24.6199 37.1802 24.4399 37.5202 24.3999C38.3802 24.3199 39.1002 24.2999 39.8002 24.2999C50.1602 24.2999 58.5802 30.4399 58.5802 37.9999C58.5802 39.5599 58.2202 41.0999 57.5002 42.5799C57.1802 43.2399 57.0402 43.9599 57.1202 44.6599L57.9402 52.3999C57.9802 52.7999 57.7802 53.1599 57.4402 53.3599C57.2602 53.4599 57.1002 53.4799 56.9402 53.4799ZM50.4802 47.6999C51.7602 47.6999 53.0202 48.1199 54.0602 48.9599L55.7402 50.2999L55.1602 44.8799C55.0402 43.8199 55.2402 42.7399 55.7202 41.7399C56.3002 40.5199 56.6002 39.2799 56.6002 37.9999C56.6002 31.5199 49.0402 26.2399 39.7602 26.2399C39.2602 26.2399 38.7402 26.2599 38.1602 26.2999C35.6002 30.6599 30.1602 33.7199 23.7202 34.4199C23.1802 35.5799 22.9002 36.7799 22.9002 37.9799C22.9002 44.4599 30.4602 49.7399 39.7402 49.7399C42.7402 49.7399 45.7002 49.1799 48.2602 48.1199C49.0002 47.8399 49.7402 47.6999 50.4802 47.6999Z" fill="#1D6687"/>
<path id="Vector_9" d="M57.5802 27.2999C57.3602 27.2999 57.1602 27.2399 56.9802 27.0799C56.5002 26.6999 56.0002 26.3399 55.4802 25.9799C55.0402 25.6799 54.9202 25.0799 55.2002 24.6399C55.5002 24.1999 56.1002 24.0599 56.5402 24.3599C57.1202 24.7399 57.6602 25.1399 58.1802 25.5599C58.6002 25.8999 58.6602 26.4999 58.3402 26.9199C58.1602 27.1799 57.8602 27.2999 57.5802 27.2999Z" fill="#1D6687"/>
<path id="Vector_10" d="M52.28 24.14C52.14 24.14 52.02 24.12 51.88 24.06C50.66 23.52 49.36 23.06 48 22.7C47.48 22.56 47.18 22.02 47.32 21.5C47.46 20.98 48 20.68 48.52 20.82C49.96 21.22 51.36 21.7 52.66 22.28C53.16 22.5 53.38 23.08 53.16 23.56C53 23.92 52.64 24.14 52.28 24.14Z" fill="#1D6687"/>
<path id="Vector_11" d="M44.1 21.88C44.06 21.88 44.02 21.88 43.98 21.88C43.36 21.8 42.74 21.74 42.1 21.7C41.56 21.66 41.16 21.2 41.2 20.66C41.24 20.12 41.68 19.72 42.24 19.76C42.92 19.8 43.58 19.88 44.24 19.96C44.78 20.02 45.14 20.52 45.08 21.06C45 21.54 44.58 21.88 44.1 21.88Z" fill="#1D6687"/>
</g>
</g>
</svg>
