<svg width="61" height="60" viewBox="0 0 61 60" fill="none" xmlns="http://www.w3.org/2000/svg">
<g id="computer-network 1" clip-path="url(#clip0_21_749)">
<path id="Vector" d="M17.2655 27.9562H29.3405V31.1531C29.6686 31.0312 30.0249 30.9656 30.3999 30.9656C30.7749 30.9656 31.1311 31.0312 31.4592 31.1531V27.9562H43.5342C44.3124 27.9562 44.9405 27.3281 44.9405 26.55V7.03123C44.9405 6.24373 44.3124 5.6156 43.5342 5.6156H17.2655C16.478 5.6156 15.8499 6.24373 15.8499 7.03123V26.55C15.8499 27.3281 16.478 27.9562 17.2655 27.9562ZM30.3999 26.4844C29.978 26.4844 29.6311 26.1469 29.6311 25.725C29.6311 25.3031 29.978 24.9656 30.3999 24.9656C30.8124 24.9656 31.1592 25.3031 31.1592 25.725C31.1592 26.1469 30.8124 26.4844 30.3999 26.4844ZM18.1186 8.19373H42.6717V23.1937H18.1186V8.19373Z" fill="#1D6687"/>
<path id="Vector_2" d="M38.5374 40.2281H31.4593V37.0312C31.1312 37.1531 30.7749 37.2187 30.3999 37.2187C30.0249 37.2187 29.6687 37.1531 29.3405 37.0312V40.2281H22.253C21.7655 40.2281 21.3718 40.6218 21.3718 41.1093V53.4937C21.3718 53.9906 21.7655 54.3843 22.253 54.3843H38.5374C39.0249 54.3843 39.4187 53.9906 39.4187 53.4937V41.1093C39.4187 40.6218 39.0249 40.2281 38.5374 40.2281ZM37.6749 51.45H23.1155V42.2812H37.6749V51.45ZM17.5655 40.2281H10.4874V37.0312C10.1593 37.1531 9.79365 37.2187 9.41865 37.2187C9.04365 37.2187 8.6874 37.1531 8.35928 37.0312V40.2281H1.28115C0.793652 40.2281 0.399902 40.6218 0.399902 41.1093V53.4937C0.399902 53.9906 0.793652 54.3843 1.28115 54.3843H17.5655C18.053 54.3843 18.4468 53.9906 18.4468 53.4937V41.1093C18.4468 40.6218 18.053 40.2281 17.5655 40.2281ZM16.703 51.45H2.14365V42.2812H16.703V51.45ZM59.5093 40.2281H52.4312V37.0312C52.103 37.1531 51.7468 37.2187 51.3718 37.2187C50.9968 37.2187 50.6405 37.1531 50.3124 37.0312V40.2281H43.2249C42.7374 40.2281 42.3437 40.6218 42.3437 41.1093V53.4937C42.3437 53.9906 42.7374 54.3843 43.2249 54.3843H59.5093C59.9968 54.3843 60.3999 53.9906 60.3999 53.4937V41.1093C60.3999 40.6218 59.9968 40.2281 59.5093 40.2281ZM58.6468 51.45H44.0874V42.2812H58.6468V51.45ZM2.19053 35.2218H6.5124C6.37178 34.875 6.29678 34.4906 6.29678 34.0875C6.29678 33.6937 6.37178 33.3093 6.50303 32.9625H2.19053C1.57178 32.9625 1.06553 33.4687 1.06553 34.0968C1.06553 34.7156 1.57178 35.2218 2.19053 35.2218ZM27.4843 35.2218C27.3437 34.875 27.2687 34.4906 27.2687 34.0875C27.2687 33.6937 27.3437 33.3093 27.4749 32.9625H12.3437C12.4749 33.3093 12.5499 33.6937 12.5499 34.0875C12.5499 34.4906 12.4749 34.875 12.3343 35.2218H27.4843ZM33.3155 32.9625C33.4468 33.3093 33.5218 33.6937 33.5218 34.0875C33.5218 34.4906 33.4468 34.875 33.3062 35.2218H48.4562C48.3155 34.875 48.2405 34.4906 48.2405 34.0875C48.2405 33.6937 48.3155 33.3093 48.4468 32.9625H33.3155ZM58.5999 35.2218C59.228 35.2218 59.7249 34.7156 59.7249 34.0968C59.7249 33.4687 59.228 32.9625 58.5999 32.9625H54.2874C54.4187 33.3093 54.4937 33.6937 54.4937 34.0875C54.4937 34.4906 54.4187 34.875 54.278 35.2218H58.5999ZM9.41865 36.2812C10.628 36.2812 11.603 35.2968 11.603 34.0968C11.603 32.8875 10.6187 31.9125 9.41865 31.9125C8.20928 31.9125 7.23428 32.8968 7.23428 34.0968C7.23428 35.2968 8.21865 36.2812 9.41865 36.2812Z" fill="#1D6687"/>
<path id="Vector_3" d="M32.5739 34.114C32.5891 32.9077 31.6235 31.9175 30.4172 31.9023C29.2109 31.8871 28.2207 32.8527 28.2055 34.059C28.1903 35.2653 29.1559 36.2555 30.3622 36.2707C31.5685 36.2859 32.5587 35.3203 32.5739 34.114Z" fill="#1D6687"/>
<path id="Vector_4" d="M51.3717 36.2812C52.5811 36.2812 53.5561 35.2968 53.5561 34.0968C53.5561 32.8875 52.5717 31.9125 51.3717 31.9125C50.1623 31.9125 49.1873 32.8968 49.1873 34.0968C49.1779 35.2968 50.1623 36.2812 51.3717 36.2812Z" fill="#1D6687"/>
</g>
<defs>
<clipPath id="clip0_21_749">
<rect width="60" height="60" fill="white" transform="translate(0.399902)"/>
</clipPath>
</defs>
</svg>
