<svg width="60" height="60" viewBox="0 0 60 60" fill="none" xmlns="http://www.w3.org/2000/svg">
<g clip-path="url(#clip0_37_613)">
<path d="M21.8027 26.1261C21.901 26.2509 22.033 26.3448 22.1831 26.3966C28.7324 30.8957 37.6848 29.2714 42.2366 22.7589C46.7883 16.2459 45.2363 7.28102 38.7604 2.6767C32.2848 -1.92761 23.3074 -0.448179 18.651 5.99041C13.995 12.4291 15.4019 21.418 21.8027 26.1261ZM23.2742 25.1378L23.2216 19.9657C23.2213 19.9378 23.2196 19.91 23.2165 19.8823C23.1715 19.4791 23.2116 19.0709 23.3342 18.6842C23.4568 18.2975 23.6592 17.9408 23.9283 17.6371C24.1972 17.3333 24.527 17.0894 24.8961 16.9209C25.2653 16.7525 25.6657 16.6635 26.0714 16.6594C26.094 16.6594 26.1162 16.6581 26.1388 16.6559L26.4647 16.6258L27.656 21.081C27.6978 21.2374 27.7846 21.3781 27.9056 21.4856C28.0267 21.5931 28.1766 21.6627 28.3369 21.6857C28.5084 21.7105 28.6834 21.6808 28.8371 21.6008C28.9908 21.5208 29.1155 21.3945 29.1936 21.2398L30.2542 19.1414L31.4581 21.2407C31.5395 21.3824 31.6611 21.4969 31.8074 21.5697C31.9538 21.6424 32.1184 21.6702 32.2805 21.6496C32.4427 21.6288 32.5951 21.5605 32.7185 21.4533C32.8419 21.346 32.9308 21.2046 32.9739 21.0469L34.1934 16.5764L34.4746 16.5737C34.8802 16.5697 35.2821 16.6507 35.6544 16.8116C36.0267 16.9725 36.3611 17.2097 36.6361 17.5079C36.9112 17.806 37.1207 18.1585 37.251 18.5426C37.3814 18.9267 37.4298 19.3338 37.3931 19.7378C37.3905 19.7655 37.3893 19.7934 37.3895 19.8213L37.4429 25.0898C33.1655 27.9738 27.5711 27.9923 23.2742 25.1373V25.1378ZM30.1985 16.7277H30.2382L30.2193 16.7911L30.1985 16.7277ZM30.3225 1.74249C35.55 1.74012 40.2503 4.92704 42.1821 9.7847C44.1137 14.6419 42.8863 20.1864 39.0848 23.7748L39.0447 19.8448C39.096 19.2136 39.0152 18.5787 38.8074 17.9804C38.5996 17.3822 38.2693 16.8339 37.8376 16.3705C37.4061 15.9071 36.8827 15.5387 36.3007 15.289C35.7188 15.0393 35.0912 14.9137 34.458 14.9203L33.5519 14.9295C33.3719 14.9313 33.1975 14.9918 33.055 15.1018C32.9126 15.2117 32.8099 15.3651 32.7625 15.5388L31.9026 18.6895L31.5564 18.0857L32.1482 16.1277C32.1857 16.0034 32.1935 15.872 32.1708 15.7442C32.1482 15.6164 32.0958 15.4957 32.0179 15.3918C31.94 15.288 31.8387 15.2039 31.7223 15.1465C31.6059 15.089 31.4776 15.0597 31.3477 15.061L29.0565 15.085C28.9267 15.0862 28.7989 15.1179 28.6837 15.1777C28.5684 15.2374 28.4688 15.3235 28.393 15.4289C28.3172 15.5343 28.2673 15.6561 28.2474 15.7845C28.2274 15.9128 28.238 16.044 28.2783 16.1674L28.9139 18.1268L28.695 18.5603L27.8836 15.5245C27.8331 15.3359 27.7176 15.1713 27.5574 15.0597C27.3973 14.9482 27.2028 14.8968 27.0085 14.9147L26.0193 15.0057C25.3891 15.017 24.7681 15.159 24.1955 15.4226C23.6229 15.6862 23.1113 16.0657 22.693 16.5372C22.2746 17.0087 21.9587 17.5619 21.7651 18.1617C21.5715 18.7616 21.5045 19.3951 21.5683 20.0222L21.607 23.8173C17.7795 20.24 16.5286 14.6862 18.4525 9.81377C20.3764 4.94075 25.084 1.74024 30.323 1.74249H30.3225Z" fill="#1D6687"/>
<path d="M30.0855 15.0467H30.1311C32.5697 15.0218 34.5269 13.0249 34.5019 10.5865L34.4683 7.23351C34.4465 5.31191 32.873 3.7702 30.951 3.78781L27.1161 3.82704C26.2793 3.83531 25.6081 4.52031 25.6164 5.35716L25.6704 10.6765C25.6982 13.096 27.6658 15.0435 30.0855 15.0467ZM27.2826 6.52404C27.3755 6.6159 27.4702 6.70592 27.5666 6.79405C27.4692 6.85172 27.3763 6.91175 27.2869 6.97414L27.2826 6.52404ZM32.0588 12.5635C31.8056 12.8233 31.5034 13.0303 31.1697 13.1726C30.836 13.3148 30.4773 13.3893 30.1146 13.3919H30.086C28.5729 13.39 27.3422 12.172 27.3247 10.6589L27.3114 9.31015C27.5445 8.94265 28.1422 8.16312 29.125 7.92537C29.9755 8.42075 30.9389 8.68968 31.9231 8.70644C32.2268 8.70597 32.5295 8.6769 32.8278 8.62018L32.8481 10.603C32.8528 10.9657 32.7854 11.3258 32.6499 11.6623C32.5144 11.9988 32.3135 12.3052 32.0588 12.5635ZM30.9681 5.44212C31.3977 5.43855 31.8149 5.5863 32.1465 5.85948C32.478 6.13267 32.7029 6.51385 32.7816 6.93621C31.0345 7.41123 29.5127 6.37776 28.5692 5.46564L30.9681 5.44212ZM7.25585 47.0427H5.54718C5.33023 47.0464 5.1234 47.1351 4.97127 47.2899C4.81914 47.4446 4.73389 47.6529 4.73389 47.8699C4.73389 48.0869 4.81914 48.2952 4.97127 48.4499C5.1234 48.6046 5.33023 48.6934 5.54718 48.697H7.25585C7.47281 48.6934 7.67963 48.6046 7.83176 48.4499C7.98389 48.2952 8.06915 48.0869 8.06915 47.8699C8.06915 47.6529 7.98389 47.4446 7.83176 47.2899C7.67963 47.1351 7.47281 47.0464 7.25585 47.0427ZM14.9237 47.0427H13.215C12.9981 47.0464 12.7913 47.1351 12.6391 47.2899C12.487 47.4446 12.4018 47.6529 12.4018 47.8699C12.4018 48.0869 12.487 48.2952 12.6391 48.4499C12.7913 48.6046 12.9981 48.6934 13.215 48.697H14.9237C15.3807 48.697 15.7509 48.3269 15.7509 47.8699C15.7509 47.4128 15.3807 47.0427 14.9237 47.0427ZM11.3427 47.0427H9.12818C8.67124 47.0427 8.30102 47.4129 8.30102 47.8699C8.30102 48.3268 8.67124 48.697 9.12818 48.697H11.3433C11.5603 48.6934 11.7671 48.6046 11.9192 48.4499C12.0714 48.2952 12.1566 48.0869 12.1566 47.8699C12.1566 47.6529 12.0714 47.4446 11.9192 47.2899C11.7671 47.1351 11.5603 47.0464 11.3433 47.0427H11.3427ZM7.25585 50.1285H5.54718C5.33023 50.1322 5.1234 50.2209 4.97127 50.3756C4.81914 50.5304 4.73389 50.7387 4.73389 50.9556C4.73389 51.1726 4.81914 51.3809 4.97127 51.5357C5.1234 51.6904 5.33023 51.7791 5.54718 51.7828H7.25585C7.47281 51.7791 7.67963 51.6904 7.83176 51.5357C7.98389 51.3809 8.06915 51.1726 8.06915 50.9556C8.06915 50.7387 7.98389 50.5304 7.83176 50.3756C7.67963 50.2209 7.47281 50.1322 7.25585 50.1285ZM14.9237 50.1285H13.215C12.9981 50.1322 12.7913 50.2209 12.6391 50.3756C12.487 50.5304 12.4018 50.7387 12.4018 50.9556C12.4018 51.1726 12.487 51.3809 12.6391 51.5357C12.7913 51.6904 12.9981 51.7791 13.215 51.7828H14.9237C15.1407 51.7791 15.3475 51.6904 15.4996 51.5357C15.6518 51.3809 15.737 51.1726 15.737 50.9556C15.737 50.7387 15.6518 50.5304 15.4996 50.3756C15.3475 50.2209 15.1407 50.1322 14.9237 50.1285ZM11.3427 50.1285H9.12818C8.91123 50.1322 8.7044 50.2209 8.55227 50.3756C8.40014 50.5304 8.31489 50.7387 8.31489 50.9556C8.31489 51.1726 8.40014 51.3809 8.55227 51.5357C8.7044 51.6904 8.91123 51.7791 9.12818 51.7828H11.3433C11.5603 51.7791 11.7671 51.6904 11.9192 51.5357C12.0714 51.3809 12.1566 51.1726 12.1566 50.9556C12.1566 50.7387 12.0714 50.5304 11.9192 50.3756C11.7671 50.2209 11.5603 50.1322 11.3433 50.1285H11.3427ZM26.7531 47.0427H25.0445C24.8275 47.0464 24.6207 47.1351 24.4686 47.2899C24.3164 47.4446 24.2312 47.6529 24.2312 47.8699C24.2312 48.0869 24.3164 48.2952 24.4686 48.4499C24.6207 48.6046 24.8275 48.6934 25.0445 48.697H26.7531C26.9701 48.6934 27.1769 48.6046 27.3291 48.4499C27.4812 48.2952 27.5664 48.0869 27.5664 47.8699C27.5664 47.6529 27.4812 47.4446 27.3291 47.2899C27.1769 47.1351 26.9701 47.0464 26.7531 47.0427ZM34.421 47.0427H32.7123C32.4954 47.0464 32.2886 47.1351 32.1364 47.2899C31.9843 47.4446 31.899 47.6529 31.899 47.8699C31.899 48.0869 31.9843 48.2952 32.1364 48.4499C32.2886 48.6046 32.4954 48.6934 32.7123 48.697H34.421C34.878 48.697 35.2482 48.3269 35.2482 47.8699C35.2482 47.4128 34.878 47.0427 34.421 47.0427ZM30.84 47.0427H28.6253C28.1684 47.0427 27.7982 47.4129 27.7982 47.8699C27.7982 48.3268 28.1684 48.697 28.6253 48.697H30.84C31.2971 48.697 31.6672 48.3269 31.6672 47.8699C31.6672 47.4128 31.2971 47.0427 30.84 47.0427ZM26.7531 50.1285H25.0445C24.8275 50.1322 24.6207 50.2209 24.4686 50.3756C24.3164 50.5304 24.2312 50.7387 24.2312 50.9556C24.2312 51.1726 24.3164 51.3809 24.4686 51.5357C24.6207 51.6904 24.8275 51.7791 25.0445 51.7828H26.7531C26.9701 51.7791 27.1769 51.6904 27.3291 51.5357C27.4812 51.3809 27.5664 51.1726 27.5664 50.9556C27.5664 50.7387 27.4812 50.5304 27.3291 50.3756C27.1769 50.2209 26.9701 50.1322 26.7531 50.1285ZM34.421 50.1285H32.7123C32.4954 50.1322 32.2886 50.2209 32.1364 50.3756C31.9843 50.5304 31.899 50.7387 31.899 50.9556C31.899 51.1726 31.9843 51.3809 32.1364 51.5357C32.2886 51.6904 32.4954 51.7791 32.7123 51.7828H34.421C34.638 51.7791 34.8448 51.6904 34.9969 51.5357C35.149 51.3809 35.2343 51.1726 35.2343 50.9556C35.2343 50.7387 35.149 50.5304 34.9969 50.3756C34.8448 50.2209 34.638 50.1322 34.421 50.1285ZM30.84 50.1285H28.6253C28.4084 50.1322 28.2016 50.2209 28.0494 50.3756C27.8973 50.5304 27.8121 50.7387 27.8121 50.9556C27.8121 51.1726 27.8973 51.3809 28.0494 51.5357C28.2016 51.6904 28.4084 51.7791 28.6253 51.7828H30.84C31.057 51.7791 31.2638 51.6904 31.4159 51.5357C31.568 51.3809 31.6533 51.1726 31.6533 50.9556C31.6533 50.7387 31.568 50.5304 31.4159 50.3756C31.2638 50.2209 31.057 50.1322 30.84 50.1285Z" fill="#1D6687"/>
<path d="M56.5733 44.1389H55.4665V42.1098C55.4665 41.6529 55.0963 41.2826 54.6393 41.2826H50.2533V38.1546C50.2533 37.6975 49.8827 37.3274 49.4261 37.3274H30.6882V33.0965L32.8244 35.2322C32.9011 35.3091 32.9923 35.37 33.0927 35.4116C33.193 35.4532 33.3006 35.4746 33.4092 35.4746C33.5178 35.4746 33.6254 35.4532 33.7258 35.4116C33.8261 35.37 33.9173 35.3091 33.9941 35.2322C34.0709 35.1554 34.1318 35.0643 34.1734 34.9639C34.215 34.8636 34.2364 34.756 34.2364 34.6474C34.2364 34.5388 34.215 34.4312 34.1734 34.3309C34.1318 34.2306 34.0709 34.1394 33.9941 34.0626L30.4491 30.5177C30.3723 30.4408 30.2812 30.3799 30.1808 30.3383C30.0805 30.2967 29.9729 30.2753 29.8643 30.2753C29.7556 30.2753 29.6481 30.2967 29.5477 30.3383C29.4474 30.3799 29.3562 30.4408 29.2794 30.5177L25.7344 34.0626C25.6576 34.1394 25.5967 34.2306 25.5551 34.3309C25.5135 34.4312 25.4921 34.5388 25.4921 34.6474C25.4921 34.756 25.5135 34.8636 25.5551 34.9639C25.5967 35.0643 25.6576 35.1554 25.7344 35.2322C25.8112 35.3091 25.9024 35.37 26.0027 35.4116C26.1031 35.4532 26.2107 35.4746 26.3193 35.4746C26.4279 35.4746 26.5355 35.4532 26.6358 35.4116C26.7362 35.37 26.8274 35.3091 26.9042 35.2322L29.0338 33.1029V37.3273H11.2195C10.7625 37.3273 10.3923 37.6975 10.3923 38.1544V41.2826H5.33247C4.87553 41.2826 4.50532 41.6529 4.50532 42.1098V44.1389H3.39893C2.94199 44.1389 2.57178 44.5091 2.57178 44.9661V59.1728C2.57178 59.6297 2.94199 59.9999 3.39893 59.9999H17.5788C18.0353 59.9999 18.4059 59.6297 18.4059 59.1728V44.9661C18.4059 44.5091 18.0353 44.1389 17.5788 44.1389H16.4719V42.1098C16.4719 41.6529 16.1017 41.2826 15.6448 41.2826H12.0466V38.9817H29.0338V41.2826H24.8298C24.3728 41.2826 24.0026 41.6529 24.0026 42.1098V44.1389H22.8962C22.4393 44.1389 22.0691 44.5091 22.0691 44.9661V59.1728C22.0691 59.6297 22.4393 59.9999 22.8962 59.9999H37.0761C37.5325 59.9999 37.9032 59.6297 37.9032 59.1728V44.9661C37.9032 44.5091 37.5325 44.1389 37.0761 44.1389H35.9692V42.1098C35.9692 41.6529 35.599 41.2826 35.1421 41.2826H30.6882V38.9817H48.599V41.2826H44.327C43.8701 41.2826 43.4999 41.6529 43.4999 42.1098V44.1389H42.3935C41.9366 44.1389 41.5663 44.5091 41.5663 44.9661V59.1728C41.5663 59.6297 41.9366 59.9999 42.3935 59.9999H56.5733C57.0298 59.9999 57.4005 59.6297 57.4005 59.1728V44.9661C57.4005 44.5091 57.0298 44.1389 56.5733 44.1389ZM12.3591 58.3456H8.37984V55.2589H12.3592L12.3591 58.3456ZM16.7515 58.3456H14.0134V54.4317C14.0134 53.9751 13.6427 53.6046 13.1862 53.6046H7.55268C7.09574 53.6046 6.72553 53.9751 6.72553 54.4317V58.3454H4.22609V45.7934H16.7516L16.7515 58.3456ZM14.8175 44.1389H6.15951V42.937H14.818V44.1389H14.8175ZM31.8563 58.3456H27.8765V55.2589H31.8563V58.3456ZM36.2488 58.3456H33.5107V54.4317C33.5107 53.9751 33.14 53.6046 32.6835 53.6046H27.0494C26.5929 53.6046 26.2222 53.9751 26.2222 54.4317V58.3454H23.7233V45.7934H36.2488V58.3456ZM34.3148 44.1389H25.6568V42.937H34.3148V44.1389ZM45.1541 42.937H53.8125V44.1389H45.1541V42.937ZM51.3536 58.3461H47.3738V55.2595H51.3536V58.3461ZM55.7461 58.3461H53.0079V54.4323C53.0079 53.9753 52.6373 53.6052 52.1808 53.6052H46.5467C46.0902 53.6052 45.7195 53.9753 45.7195 54.4323V58.346H43.2205V45.7932H55.7461V58.3461Z" fill="#1D6687"/>
<path d="M46.2505 47.0428H44.5418C44.3249 47.0465 44.118 47.1352 43.9659 47.2899C43.8138 47.4447 43.7285 47.653 43.7285 47.8699C43.7285 48.0869 43.8138 48.2952 43.9659 48.45C44.118 48.6047 44.3249 48.6934 44.5418 48.6971H46.2505C46.4674 48.6934 46.6743 48.6047 46.8264 48.45C46.9785 48.2952 47.0638 48.0869 47.0638 47.8699C47.0638 47.653 46.9785 47.4447 46.8264 47.2899C46.6743 47.1352 46.4674 47.0465 46.2505 47.0428ZM53.9184 47.0428H52.2097C51.9927 47.0465 51.7859 47.1352 51.6338 47.2899C51.4816 47.4447 51.3964 47.653 51.3964 47.8699C51.3964 48.0869 51.4816 48.2952 51.6338 48.45C51.7859 48.6047 51.9927 48.6934 52.2097 48.6971H53.9184C54.3753 48.6971 54.7455 48.3269 54.7455 47.8699C54.7455 47.413 54.3753 47.0428 53.9184 47.0428ZM50.3373 47.0428H48.1227C47.6657 47.0428 47.2955 47.4129 47.2955 47.8699C47.2955 48.327 47.6657 48.6971 48.1227 48.6971H50.3373C50.7944 48.6971 51.1645 48.3269 51.1645 47.8699C51.1645 47.413 50.7944 47.0428 50.3373 47.0428ZM46.2505 50.1284H44.5418C44.3249 50.1321 44.118 50.2209 43.9659 50.3756C43.8138 50.5303 43.7285 50.7386 43.7285 50.9556C43.7285 51.1726 43.8138 51.3809 43.9659 51.5356C44.118 51.6903 44.3249 51.7791 44.5418 51.7828H46.2505C46.4674 51.7791 46.6743 51.6903 46.8264 51.5356C46.9785 51.3809 47.0638 51.1726 47.0638 50.9556C47.0638 50.7386 46.9785 50.5303 46.8264 50.3756C46.6743 50.2209 46.4674 50.1321 46.2505 50.1284ZM53.9184 50.1284H52.2097C51.9927 50.1321 51.7859 50.2209 51.6338 50.3756C51.4816 50.5303 51.3964 50.7386 51.3964 50.9556C51.3964 51.1726 51.4816 51.3809 51.6338 51.5356C51.7859 51.6903 51.9927 51.7791 52.2097 51.7828H53.9184C54.1353 51.7791 54.3421 51.6903 54.4943 51.5356C54.6464 51.3809 54.7316 51.1726 54.7316 50.9556C54.7316 50.7386 54.6464 50.5303 54.4943 50.3756C54.3421 50.2209 54.1353 50.1321 53.9184 50.1284ZM50.3373 50.1284H48.1227C47.9057 50.1321 47.6989 50.2209 47.5468 50.3756C47.3947 50.5303 47.3094 50.7386 47.3094 50.9556C47.3094 51.1726 47.3947 51.3809 47.5468 51.5356C47.6989 51.6903 47.9057 51.7791 48.1227 51.7828H50.3373C50.5543 51.7791 50.7611 51.6903 50.9133 51.5356C51.0654 51.3809 51.1506 51.1726 51.1506 50.9556C51.1506 50.7386 51.0654 50.5303 50.9133 50.3756C50.7611 50.2209 50.5543 50.1321 50.3373 50.1284Z" fill="#1D6687"/>
</g>
<defs>
<clipPath id="clip0_37_613">
<rect width="60" height="60" fill="white"/>
</clipPath>
</defs>
</svg>
