<svg width="61" height="60" viewBox="0 0 61 60" fill="none" xmlns="http://www.w3.org/2000/svg">
<g id="EXPERIENCIA">
<g id="Group">
<path id="Vector" d="M26.5401 15.8001C26.0201 15.8001 25.6001 15.3801 25.6001 14.8601V10.7601C25.6001 10.2401 26.0201 9.82007 26.5401 9.82007C27.0601 9.82007 27.4801 10.2401 27.4801 10.7601V14.8601C27.4801 15.3801 27.0601 15.8001 26.5401 15.8001Z" fill="#1D6687"/>
<path id="Vector_2" d="M18.8001 17.86C18.4801 17.86 18.1601 17.7 17.9801 17.4L15.9201 13.84C15.6801 13.4 15.8201 12.82 16.2801 12.56C16.7201 12.3 17.3001 12.46 17.5601 12.9L19.6001 16.46C19.8601 16.9 19.7001 17.48 19.2601 17.74C19.1201 17.82 18.9601 17.86 18.8001 17.86Z" fill="#1D6687"/>
<path id="Vector_3" d="M13.12 23.54C12.96 23.54 12.8 23.5 12.66 23.42L9.09999 21.36C8.65999 21.1 8.49999 20.54 8.75999 20.08C9.01999 19.64 9.59999 19.48 10.04 19.74L13.6 21.8C14.04 22.06 14.2 22.62 13.94 23.08C13.76 23.38 13.44 23.54 13.12 23.54Z" fill="#1D6687"/>
<path id="Vector_4" d="M11.04 31.28H6.94C6.42 31.28 6 30.86 6 30.34C6 29.82 6.42 29.4 6.94 29.4H11.04C11.56 29.4 11.98 29.82 11.98 30.34C11.98 30.86 11.56 31.28 11.04 31.28Z" fill="#1D6687"/>
<path id="Vector_5" d="M9.55997 41.08C9.23997 41.08 8.91997 40.92 8.73997 40.62C8.47997 40.18 8.63997 39.6 9.07997 39.34L12.64 37.28C13.08 37.02 13.66 37.18 13.92 37.62C14.18 38.06 14.02 38.64 13.58 38.9L10.02 40.96C9.87997 41.04 9.71997 41.08 9.55997 41.08Z" fill="#1D6687"/>
<path id="Vector_6" d="M16.7402 48.2601C16.5802 48.2601 16.4202 48.2201 16.2802 48.1401C15.8402 47.8801 15.6802 47.3201 15.9402 46.8601L18.0002 43.3001C18.2602 42.8601 18.8402 42.7001 19.2802 42.9601C19.7202 43.2201 19.8802 43.7801 19.6202 44.2401L17.5602 47.8001C17.3802 48.0801 17.0602 48.2601 16.7402 48.2601Z" fill="#1D6687"/>
<path id="Vector_7" d="M26.5401 50.88C26.0201 50.88 25.6001 50.46 25.6001 49.94V45.84C25.6001 45.32 26.0201 44.9 26.5401 44.9C27.0601 44.9 27.4801 45.32 27.4801 45.84V49.94C27.4801 50.46 27.0601 50.88 26.5401 50.88Z" fill="#1D6687"/>
<path id="Vector_8" d="M39.9601 23.54C39.6401 23.54 39.3201 23.38 39.1401 23.08C38.8801 22.64 39.0401 22.06 39.4801 21.8L43.0401 19.74C43.4801 19.48 44.0601 19.64 44.3201 20.08C44.5801 20.52 44.4201 21.1 43.9801 21.36L40.4201 23.42C40.2801 23.5 40.1201 23.54 39.9601 23.54Z" fill="#1D6687"/>
<path id="Vector_9" d="M34.28 17.86C34.12 17.86 33.96 17.82 33.82 17.74C33.38 17.48 33.22 16.92 33.48 16.46L35.54 12.9C35.8 12.46 36.36 12.3 36.82 12.56C37.26 12.82 37.42 13.38 37.16 13.84L35.1 17.4C34.92 17.7 34.6 17.86 34.28 17.86Z" fill="#1D6687"/>
<path id="Vector_10" d="M21.8201 13.68C21.4001 13.68 21.0401 13.4 20.9201 12.98L20.5601 11.66C20.4201 11.16 20.7201 10.64 21.2201 10.52C21.7201 10.38 22.2401 10.68 22.3601 11.18L22.7201 12.5C22.8601 13 22.5601 13.52 22.0601 13.64C21.9801 13.66 21.9001 13.68 21.8201 13.68Z" fill="#1D6687"/>
<path id="Vector_11" d="M13.64 18.4001C13.4 18.4001 13.16 18.3001 12.98 18.1201L12.02 17.1601C11.66 16.8001 11.66 16.2001 12.02 15.8401C12.38 15.4801 12.98 15.4801 13.34 15.8401L14.32 16.8001C14.68 17.1601 14.68 17.7601 14.32 18.1201C14.12 18.3001 13.88 18.4001 13.64 18.4001Z" fill="#1D6687"/>
<path id="Vector_12" d="M8.93999 26.56C8.85999 26.56 8.77999 26.54 8.69999 26.52L7.37999 26.16C6.87999 26.02 6.57999 25.52 6.71999 25.02C6.85999 24.52 7.35999 24.22 7.85999 24.36L9.17999 24.72C9.67999 24.86 9.97999 25.36 9.83999 25.86C9.71999 26.28 9.33999 26.56 8.93999 26.56Z" fill="#1D6687"/>
<path id="Vector_13" d="M7.59997 36.3601C7.17997 36.3601 6.79997 36.0801 6.69997 35.6601C6.55997 35.1601 6.85997 34.6401 7.35997 34.5201L8.67997 34.1601C9.17997 34.0201 9.69997 34.3201 9.81997 34.8201C9.95997 35.3201 9.65997 35.8401 9.15997 35.9601L7.83997 36.3201C7.75997 36.3401 7.67997 36.3601 7.59997 36.3601Z" fill="#1D6687"/>
<path id="Vector_14" d="M12.68 45.1401C12.44 45.1401 12.2 45.0401 12.02 44.8601C11.66 44.5001 11.66 43.9001 12.02 43.5401L12.98 42.5801C13.34 42.2201 13.94 42.2201 14.3 42.5801C14.66 42.9401 14.66 43.5401 14.3 43.9001L13.34 44.8601C13.16 45.0401 12.92 45.1401 12.68 45.1401Z" fill="#1D6687"/>
<path id="Vector_15" d="M21.4601 50.2201C21.3801 50.2201 21.3001 50.2001 21.2201 50.1801C20.7201 50.0401 20.4201 49.5401 20.5601 49.0401L20.9201 47.7201C21.0601 47.2201 21.5601 46.9201 22.0601 47.0601C22.5601 47.2001 22.8601 47.7001 22.7201 48.2001L22.3601 49.5201C22.2601 49.9401 21.8801 50.2201 21.4601 50.2201Z" fill="#1D6687"/>
<path id="Vector_16" d="M31.6201 50.2201C31.2001 50.2201 30.8401 49.9401 30.7201 49.5201L30.3601 48.2001C30.2201 47.7001 30.5201 47.1801 31.0201 47.0601C31.5201 46.9201 32.0401 47.2201 32.1601 47.7201L32.5201 49.0401C32.6601 49.5401 32.3601 50.0601 31.8601 50.1801C31.7801 50.2001 31.7001 50.2201 31.6201 50.2201Z" fill="#1D6687"/>
<path id="Vector_17" d="M39.42 18.4001C39.18 18.4001 38.94 18.3001 38.76 18.1201C38.4 17.7601 38.4 17.1601 38.76 16.8001L39.72 15.8401C40.08 15.4801 40.68 15.4801 41.04 15.8401C41.4 16.2001 41.4 16.8001 41.04 17.1601L40.08 18.1201C39.9 18.3001 39.66 18.4001 39.42 18.4001Z" fill="#1D6687"/>
<path id="Vector_18" d="M31.2601 13.68C31.1801 13.68 31.1001 13.66 31.0201 13.64C30.5201 13.5 30.2201 13 30.3601 12.5L30.7201 11.18C30.8601 10.68 31.3601 10.38 31.8601 10.52C32.3601 10.66 32.6601 11.16 32.5201 11.66L32.1601 12.98C32.0401 13.4 31.6601 13.68 31.2601 13.68Z" fill="#1D6687"/>
<path id="Vector_19" d="M26.5401 54.06C13.4601 54.06 2.82007 43.42 2.82007 30.34C2.82007 17.26 13.4601 6.64001 26.5401 6.64001C37.7001 6.64001 47.5201 14.54 49.9001 25.44C50.0201 25.94 49.7001 26.44 49.1801 26.56C48.6801 26.66 48.1801 26.36 48.0601 25.84C45.8601 15.8 36.8001 8.52002 26.5201 8.52002C14.4801 8.52002 4.68007 18.32 4.68007 30.36C4.68007 42.4 14.5001 52.2 26.5401 52.2C29.8201 52.2 32.9601 51.5 35.9001 50.1C36.3601 49.88 36.9201 50.08 37.1401 50.54C37.3601 51 37.1601 51.56 36.7001 51.78C33.5201 53.3 30.1001 54.06 26.5401 54.06Z" fill="#1D6687"/>
<path id="Vector_20" d="M26.5401 28.76C26.0201 28.76 25.6001 28.34 25.6001 27.82V20.72C25.6001 20.2 26.0201 19.78 26.5401 19.78C27.0601 19.78 27.4801 20.2 27.4801 20.72V27.82C27.4801 28.34 27.0601 28.76 26.5401 28.76Z" fill="#1D6687"/>
<path id="Vector_21" d="M23.0801 31.28H18.8001C18.2801 31.28 17.8601 30.86 17.8601 30.34C17.8601 29.82 18.2801 29.42 18.8001 29.42H23.0801C23.6001 29.42 24.0201 29.84 24.0201 30.36C24.0201 30.88 23.5801 31.28 23.0801 31.28Z" fill="#1D6687"/>
<path id="Vector_22" d="M46.9001 35.82C43.7001 35.82 41.1001 33.22 41.1001 30.02C41.1001 26.82 43.7001 24.22 46.9001 24.22C50.1001 24.22 52.7001 26.82 52.7001 30.02C52.7001 33.22 50.1001 35.82 46.9001 35.82ZM46.9001 26.1C44.7401 26.1 42.9801 27.86 42.9801 30.02C42.9801 32.18 44.7401 33.94 46.9001 33.94C49.0601 33.94 50.8201 32.18 50.8201 30.02C50.8401 27.86 49.0801 26.1 46.9001 26.1Z" fill="#1D6687"/>
<path id="Vector_23" d="M53.18 52.84C52.66 52.84 52.24 52.42 52.24 51.9V43.22C52.24 42.7 52.66 42.28 53.18 42.28C53.7 42.28 54.12 42.7 54.12 43.22V51.9C54.1 52.44 53.7 52.84 53.18 52.84Z" fill="#1D6687"/>
<path id="Vector_24" d="M40.6399 52.84C40.1199 52.84 39.7 52.42 39.7 51.9V43.22C39.7 42.7 40.1199 42.28 40.6399 42.28C41.1599 42.28 41.5799 42.7 41.5799 43.22V51.9C41.5799 52.44 41.1599 52.84 40.6399 52.84Z" fill="#1D6687"/>
<path id="Vector_25" d="M57.4801 53.22C56.9601 53.22 56.5401 52.8 56.5401 52.28V43.68C56.5401 40.88 54.3201 38.58 51.5601 38.46C48.7001 40.02 45.1201 40.04 42.2601 38.46C39.5001 38.58 37.2801 40.88 37.2801 43.68V52.28C37.2801 52.8 36.8601 53.22 36.3401 53.22C35.8201 53.22 35.4001 52.8 35.4001 52.28V43.68C35.4001 39.78 38.5801 36.6 42.4801 36.6C42.6401 36.6 42.8001 36.64 42.9601 36.72C45.3601 38.12 48.4401 38.12 50.8401 36.72C50.9801 36.64 51.1401 36.6 51.3201 36.6C55.2401 36.6 58.4201 39.78 58.4201 43.68V52.28C58.4201 52.8 58.0001 53.22 57.4801 53.22Z" fill="#1D6687"/>
</g>
</g>
</svg>
