<svg width="61" height="60" viewBox="0 0 61 60" fill="none" xmlns="http://www.w3.org/2000/svg">
<g id="government-office">
<g id="Government Office">
<path id="Vector" d="M56.197 53.7469H4.80322C4.55458 53.7469 4.31613 53.6481 4.14031 53.4723C3.96449 53.2965 3.86572 53.058 3.86572 52.8094V29.0625C3.86572 28.8139 3.96449 28.5754 4.14031 28.3996C4.31613 28.2238 4.55458 28.125 4.80322 28.125H56.197C56.4456 28.125 56.6841 28.2238 56.8599 28.3996C57.0357 28.5754 57.1345 28.8139 57.1345 29.0625V52.8094C57.1345 53.058 57.0357 53.2965 56.8599 53.4723C56.6841 53.6481 56.4456 53.7469 56.197 53.7469ZM5.74072 51.8719H55.2595V30H5.74072V51.8719Z" fill="#1D6687"/>
<path id="Vector_2" d="M23.3563 33.2531H4.80322C4.55458 33.2531 4.31613 33.1543 4.14031 32.9785C3.96449 32.8027 3.86572 32.5643 3.86572 32.3156C3.86572 32.067 3.96449 31.8285 4.14031 31.6527C4.31613 31.4769 4.55458 31.3781 4.80322 31.3781H23.3563C23.605 31.3781 23.8434 31.4769 24.0193 31.6527C24.1951 31.8285 24.2938 32.067 24.2938 32.3156C24.2938 32.5643 24.1951 32.8027 24.0193 32.9785C23.8434 33.1543 23.605 33.2531 23.3563 33.2531ZM56.197 33.2531H27.0595C26.8108 33.2531 26.5724 33.1543 26.3966 32.9785C26.2207 32.8027 26.122 32.5643 26.122 32.3156C26.122 32.067 26.2207 31.8285 26.3966 31.6527C26.5724 31.4769 26.8108 31.3781 27.0595 31.3781H56.197C56.4456 31.3781 56.6841 31.4769 56.8599 31.6527C57.0357 31.8285 57.1345 32.067 57.1345 32.3156C57.1345 32.5643 57.0357 32.8027 56.8599 32.9785C56.6841 33.1543 56.4456 33.2531 56.197 33.2531Z" fill="#1D6687"/>
<path id="Vector_3" d="M13.9813 36.0469H12.9032C12.6545 36.0469 12.4161 35.9481 12.2403 35.7723C12.0644 35.5965 11.9657 35.358 11.9657 35.1094C11.9657 34.8607 12.0644 34.6223 12.2403 34.4465C12.4161 34.2706 12.6545 34.1719 12.9032 34.1719H13.0438V33.2344H8.53442V34.1719H9.5938C9.84244 34.1719 10.0809 34.2706 10.2567 34.4465C10.4325 34.6223 10.5313 34.8607 10.5313 35.1094C10.5313 35.358 10.4325 35.5965 10.2567 35.7723C10.0809 35.9481 9.84244 36.0469 9.5938 36.0469H7.59692C7.34828 36.0469 7.10983 35.9481 6.93401 35.7723C6.7582 35.5965 6.65942 35.358 6.65942 35.1094V32.2969C6.65942 32.0482 6.7582 31.8098 6.93401 31.634C7.10983 31.4581 7.34828 31.3594 7.59692 31.3594H13.9813C14.2299 31.3594 14.4684 31.4581 14.6442 31.634C14.82 31.8098 14.9188 32.0482 14.9188 32.2969V35.1094C14.9188 35.358 14.82 35.5965 14.6442 35.7723C14.4684 35.9481 14.2299 36.0469 13.9813 36.0469ZM13.9813 53.7469H7.59692C7.34828 53.7469 7.10983 53.6481 6.93401 53.4723C6.7582 53.2965 6.65942 53.058 6.65942 52.8094V49.9969C6.65942 49.7482 6.7582 49.5098 6.93401 49.334C7.10983 49.1581 7.34828 49.0594 7.59692 49.0594H13.9813C14.2299 49.0594 14.4684 49.1581 14.6442 49.334C14.82 49.5098 14.9188 49.7482 14.9188 49.9969V52.8094C14.9188 53.058 14.82 53.2965 14.6442 53.4723C14.4684 53.6481 14.2299 53.7469 13.9813 53.7469ZM8.53442 51.8719H13.0438V50.9344H8.53442V51.8719Z" fill="#1D6687"/>
<path id="Vector_4" d="M8.67505 50.9531C8.42641 50.9531 8.18795 50.8544 8.01214 50.6785C7.83632 50.5027 7.73755 50.2643 7.73755 50.0156V35.1094C7.73755 34.8607 7.83632 34.6223 8.01214 34.4465C8.18795 34.2706 8.42641 34.1719 8.67505 34.1719C8.92369 34.1719 9.16215 34.2706 9.33796 34.4465C9.51378 34.6223 9.61255 34.8607 9.61255 35.1094V50.0156C9.61255 50.2643 9.51378 50.5027 9.33796 50.6785C9.16215 50.8544 8.92369 50.9531 8.67505 50.9531ZM12.9032 50.9531C12.6545 50.9531 12.4161 50.8544 12.2403 50.6785C12.0644 50.5027 11.9657 50.2643 11.9657 50.0156V35.1094C11.9657 34.8607 12.0644 34.6223 12.2403 34.4465C12.4161 34.2706 12.6545 34.1719 12.9032 34.1719C13.1518 34.1719 13.3903 34.2706 13.5661 34.4465C13.7419 34.6223 13.8407 34.8607 13.8407 35.1094V50.0156C13.8407 50.2643 13.7419 50.5027 13.5661 50.6785C13.3903 50.8544 13.1518 50.9531 12.9032 50.9531ZM23.3563 36.0469H16.9719C16.7233 36.0469 16.4848 35.9481 16.309 35.7723C16.1332 35.5965 16.0344 35.358 16.0344 35.1094V32.2969C16.0344 32.0482 16.1332 31.8098 16.309 31.634C16.4848 31.4581 16.7233 31.3594 16.9719 31.3594H23.3563C23.6049 31.3594 23.8434 31.4581 24.0192 31.634C24.195 31.8098 24.2938 32.0482 24.2938 32.2969V35.1094C24.2938 35.358 24.195 35.5965 24.0192 35.7723C23.8434 35.9481 23.6049 36.0469 23.3563 36.0469ZM17.9094 34.1719H22.4188V33.2344H17.9094V34.1719ZM23.3563 53.7469H16.9719C16.7233 53.7469 16.4848 53.6481 16.309 53.4723C16.1332 53.2965 16.0344 53.058 16.0344 52.8094V49.9969C16.0344 49.7482 16.1332 49.5098 16.309 49.334C16.4848 49.1581 16.7233 49.0594 16.9719 49.0594H23.3563C23.6049 49.0594 23.8434 49.1581 24.0192 49.334C24.195 49.5098 24.2938 49.7482 24.2938 49.9969V52.8094C24.2938 53.058 24.195 53.2965 24.0192 53.4723C23.8434 53.6481 23.6049 53.7469 23.3563 53.7469ZM17.9094 51.8719H22.4188V50.9344H17.9094V51.8719Z" fill="#1D6687"/>
<path id="Vector_5" d="M18.05 50.9531C17.8014 50.9531 17.563 50.8544 17.3871 50.6785C17.2113 50.5027 17.1125 50.2643 17.1125 50.0156V35.1094C17.1125 34.8607 17.2113 34.6223 17.3871 34.4465C17.563 34.2706 17.8014 34.1719 18.05 34.1719C18.2987 34.1719 18.5371 34.2706 18.713 34.4465C18.8888 34.6223 18.9875 34.8607 18.9875 35.1094V50.0156C18.9875 50.2643 18.8888 50.5027 18.713 50.6785C18.5371 50.8544 18.2987 50.9531 18.05 50.9531ZM22.2782 50.9531C22.0295 50.9531 21.7911 50.8544 21.6153 50.6785C21.4394 50.5027 21.3407 50.2643 21.3407 50.0156V35.1094C21.3407 34.8607 21.4394 34.6223 21.6153 34.4465C21.7911 34.2706 22.0295 34.1719 22.2782 34.1719C22.5268 34.1719 22.7653 34.2706 22.9411 34.4465C23.1169 34.6223 23.2157 34.8607 23.2157 35.1094V50.0156C23.2157 50.2643 23.1169 50.5027 22.9411 50.6785C22.7653 50.8544 22.5268 50.9531 22.2782 50.9531ZM53.4032 36.0469H47.0188C46.7702 36.0469 46.5317 35.9481 46.3559 35.7723C46.1801 35.5965 46.0813 35.358 46.0813 35.1094V32.2969C46.0813 32.0482 46.1801 31.8098 46.3559 31.634C46.5317 31.4581 46.7702 31.3594 47.0188 31.3594H53.4032C53.6518 31.3594 53.8903 31.4581 54.0661 31.634C54.2419 31.8098 54.3407 32.0482 54.3407 32.2969V35.1094C54.3407 35.358 54.2419 35.5965 54.0661 35.7723C53.8903 35.9481 53.6518 36.0469 53.4032 36.0469ZM47.9563 34.1719H52.4657V33.2344H47.9563V34.1719ZM53.4032 53.7469H47.0188C46.7702 53.7469 46.5317 53.6481 46.3559 53.4723C46.1801 53.2965 46.0813 53.058 46.0813 52.8094V49.9969C46.0813 49.7482 46.1801 49.5098 46.3559 49.334C46.5317 49.1581 46.7702 49.0594 47.0188 49.0594H53.4032C53.6518 49.0594 53.8903 49.1581 54.0661 49.334C54.2419 49.5098 54.3407 49.7482 54.3407 49.9969V52.8094C54.3407 53.058 54.2419 53.2965 54.0661 53.4723C53.8903 53.6481 53.6518 53.7469 53.4032 53.7469ZM47.9563 51.8719H52.4657V50.9344H47.9563V51.8719Z" fill="#1D6687"/>
<path id="Vector_6" d="M52.3251 50.9531C52.0764 50.9531 51.838 50.8544 51.6621 50.6785C51.4863 50.5027 51.3876 50.2643 51.3876 50.0156V35.1094C51.3876 34.8607 51.4863 34.6223 51.6621 34.4465C51.838 34.2706 52.0764 34.1719 52.3251 34.1719C52.5737 34.1719 52.8121 34.2706 52.988 34.4465C53.1638 34.6223 53.2626 34.8607 53.2626 35.1094V50.0156C53.2626 50.2643 53.1638 50.5027 52.988 50.6785C52.8121 50.8544 52.5737 50.9531 52.3251 50.9531ZM48.0969 50.9531C47.8483 50.9531 47.6098 50.8544 47.434 50.6785C47.2582 50.5027 47.1594 50.2643 47.1594 50.0156V35.1094C47.1594 34.8607 47.2582 34.6223 47.434 34.4465C47.6098 34.2706 47.8483 34.1719 48.0969 34.1719C48.3456 34.1719 48.584 34.2706 48.7598 34.4465C48.9357 34.6223 49.0344 34.8607 49.0344 35.1094V50.0156C49.0344 50.2643 48.9357 50.5027 48.7598 50.6785C48.584 50.8544 48.3456 50.9531 48.0969 50.9531ZM44.0282 36.0469H37.6438C37.3952 36.0469 37.1567 35.9481 36.9809 35.7723C36.8051 35.5965 36.7063 35.358 36.7063 35.1094V32.2969C36.7063 32.0482 36.8051 31.8098 36.9809 31.634C37.1567 31.4581 37.3952 31.3594 37.6438 31.3594H44.0282C44.2768 31.3594 44.5153 31.4581 44.6911 31.634C44.8669 31.8098 44.9657 32.0482 44.9657 32.2969V35.1094C44.9657 35.358 44.8669 35.5965 44.6911 35.7723C44.5153 35.9481 44.2768 36.0469 44.0282 36.0469ZM38.5813 34.1719H43.0907V33.2344H38.5813V34.1719ZM44.0282 53.7469H37.6438C37.3952 53.7469 37.1567 53.6481 36.9809 53.4723C36.8051 53.2965 36.7063 53.058 36.7063 52.8094V49.9969C36.7063 49.7482 36.8051 49.5098 36.9809 49.334C37.1567 49.1581 37.3952 49.0594 37.6438 49.0594H38.7219C38.9706 49.0594 39.209 49.1581 39.3848 49.334C39.5607 49.5098 39.6594 49.7482 39.6594 49.9969C39.6594 50.2455 39.5607 50.484 39.3848 50.6598C39.209 50.8356 38.9706 50.9344 38.7219 50.9344H38.5813V51.8719H43.0907V50.9344H41.7501C41.5014 50.9344 41.263 50.8356 41.0871 50.6598C40.9113 50.484 40.8126 50.2455 40.8126 49.9969C40.8126 49.7482 40.9113 49.5098 41.0871 49.334C41.263 49.1581 41.5014 49.0594 41.7501 49.0594H44.0001C44.2487 49.0594 44.4871 49.1581 44.663 49.334C44.8388 49.5098 44.9376 49.7482 44.9376 49.9969V52.8094C44.9377 53.0532 44.8428 53.2875 44.673 53.4625C44.5032 53.6376 44.2719 53.7396 44.0282 53.7469Z" fill="#1D6687"/>
<path id="Vector_7" d="M42.95 50.9531C42.7014 50.9531 42.4629 50.8544 42.2871 50.6785C42.1113 50.5027 42.0125 50.2643 42.0125 50.0156V35.1094C42.0125 34.8607 42.1113 34.6223 42.2871 34.4465C42.4629 34.2706 42.7014 34.1719 42.95 34.1719C43.1986 34.1719 43.4371 34.2706 43.6129 34.4465C43.7887 34.6223 43.8875 34.8607 43.8875 35.1094V50.0156C43.8875 50.2643 43.7887 50.5027 43.6129 50.6785C43.4371 50.8544 43.1986 50.9531 42.95 50.9531ZM38.7219 50.9531C38.4732 50.9531 38.2348 50.8544 38.059 50.6785C37.8831 50.5027 37.7844 50.2643 37.7844 50.0156V35.1094C37.7844 34.8607 37.8831 34.6223 38.059 34.4465C38.2348 34.2706 38.4732 34.1719 38.7219 34.1719C38.9705 34.1719 39.209 34.2706 39.3848 34.4465C39.5606 34.6223 39.6594 34.8607 39.6594 35.1094V50.0156C39.6594 50.2643 39.5606 50.5027 39.3848 50.6785C39.209 50.8544 38.9705 50.9531 38.7219 50.9531ZM26 53.7469C25.7514 53.7469 25.5129 53.6481 25.3371 53.4723C25.1613 53.2965 25.0625 53.058 25.0625 52.8094V42.5625C25.0625 38.1 29.8906 35.7469 30.0969 35.6437C30.3207 35.5375 30.5776 35.5242 30.8112 35.6068C31.0449 35.6893 31.2363 35.861 31.3438 36.0844C31.3978 36.1957 31.4293 36.3166 31.4364 36.4402C31.4435 36.5638 31.4261 36.6875 31.3851 36.8043C31.3442 36.9211 31.2805 37.0286 31.1978 37.1207C31.115 37.2127 31.0149 37.2875 30.9031 37.3406C30.9031 37.3406 26.9375 39.2906 26.9375 42.5625V52.8094C26.9375 53.058 26.8387 53.2965 26.6629 53.4723C26.4871 53.6481 26.2486 53.7469 26 53.7469Z" fill="#1D6687"/>
<path id="Vector_8" d="M35.0001 50.9343C34.7515 50.9343 34.513 50.8356 34.3372 50.6597C34.1614 50.4839 34.0626 50.2455 34.0626 49.9968V42.5625C34.0626 39.2906 30.1345 37.3593 30.097 37.3312C29.9771 37.2841 29.8683 37.2129 29.7772 37.1219C29.6861 37.0309 29.6147 36.9221 29.5675 36.8023C29.5203 36.6826 29.4982 36.5543 29.5028 36.4256C29.5073 36.297 29.5383 36.1706 29.5938 36.0544C29.6493 35.9383 29.7281 35.8348 29.8254 35.7504C29.9226 35.666 30.0362 35.6026 30.1591 35.5641C30.282 35.5255 30.4114 35.5127 30.5395 35.5264C30.6675 35.5401 30.7913 35.58 30.9032 35.6437C31.1095 35.7468 35.9376 38.1 35.9376 42.5625V49.9968C35.9376 50.2455 35.8388 50.4839 35.663 50.6597C35.4872 50.8356 35.2487 50.9343 35.0001 50.9343ZM42.5095 30H18.4907C18.2421 30 18.0036 29.9012 17.8278 29.7254C17.652 29.5496 17.5532 29.3111 17.5532 29.0625V24.825C17.5532 24.5763 17.652 24.3379 17.8278 24.162C18.0036 23.9862 18.2421 23.8875 18.4907 23.8875C18.7394 23.8875 18.9778 23.9862 19.1536 24.162C19.3294 24.3379 19.4282 24.5763 19.4282 24.825V28.125H41.572V24.825C41.572 24.5763 41.6707 24.3379 41.8466 24.162C42.0224 23.9862 42.2608 23.8875 42.5095 23.8875C42.7581 23.8875 42.9966 23.9862 43.1724 24.162C43.3482 24.3379 43.447 24.5763 43.447 24.825V29.0625C43.447 29.3111 43.3482 29.5496 43.1724 29.7254C42.9966 29.9012 42.7581 30 42.5095 30Z" fill="#1D6687"/>
<path id="Vector_9" d="M43.9531 25.7625H42.5094C42.2607 25.7625 42.0223 25.6637 41.8465 25.4879C41.6707 25.3121 41.5719 25.0736 41.5719 24.825C41.5719 24.5763 41.6707 24.3379 41.8465 24.1621C42.0223 23.9863 42.2607 23.8875 42.5094 23.8875H43.0156V22.3312H17.9844V23.8875H39.6594C39.908 23.8875 40.1465 23.9863 40.3223 24.1621C40.4981 24.3379 40.5969 24.5763 40.5969 24.825C40.5969 25.0736 40.4981 25.3121 40.3223 25.4879C40.1465 25.6637 39.908 25.7625 39.6594 25.7625H17.0469C16.7982 25.7625 16.5598 25.6637 16.384 25.4879C16.2081 25.3121 16.1094 25.0736 16.1094 24.825V21.3937C16.1094 21.1451 16.2081 20.9066 16.384 20.7308C16.5598 20.555 16.7982 20.4562 17.0469 20.4562H43.9531C44.2018 20.4562 44.4402 20.555 44.616 20.7308C44.7919 20.9066 44.8906 21.1451 44.8906 21.3937V24.825C44.8906 25.0736 44.7919 25.3121 44.616 25.4879C44.4402 25.6637 44.2018 25.7625 43.9531 25.7625Z" fill="#1D6687"/>
<path id="Vector_10" d="M41.4313 22.3312C41.1827 22.3312 40.9443 22.2325 40.7684 22.0567C40.5926 21.8808 40.4938 21.6424 40.4938 21.3937C40.4514 19.1669 39.5593 17.0405 38.0001 15.45C37.0122 14.4884 35.8357 13.7419 34.5448 13.2579C33.2539 12.7738 31.8767 12.5625 30.5001 12.6375C29.1312 12.5691 27.7629 12.7835 26.4806 13.2674C25.1983 13.7513 24.0294 14.4943 23.047 15.45C21.4772 17.0261 20.5685 19.142 20.5063 21.3656C20.5063 21.6143 20.4076 21.8527 20.2318 22.0285C20.0559 22.2043 19.8175 22.3031 19.5688 22.3031C19.3202 22.3031 19.0817 22.2043 18.9059 22.0285C18.7301 21.8527 18.6313 21.6143 18.6313 21.3656C18.6754 18.6339 19.7778 16.0258 21.7063 14.0906C22.8695 12.9668 24.2485 12.0908 25.7601 11.5155C27.2716 10.9402 28.8841 10.6777 30.5001 10.7437C32.1194 10.6838 33.7339 10.9538 35.2456 11.5372C36.7573 12.1206 38.1346 13.0053 39.2938 14.1375C41.2224 16.0727 42.3248 18.6807 42.3688 21.4125C42.3639 21.6579 42.263 21.8915 42.0877 22.0633C41.9124 22.2351 41.6768 22.3313 41.4313 22.3312Z" fill="#1D6687"/>
<path id="Vector_11" d="M30.5 12.6187C30.2514 12.6187 30.0129 12.52 29.8371 12.3442C29.6613 12.1683 29.5625 11.9299 29.5625 11.6812V3.44061C29.5625 3.19197 29.6613 2.95352 29.8371 2.7777C30.0129 2.60188 30.2514 2.50311 30.5 2.50311C30.7486 2.50311 30.9871 2.60188 31.1629 2.7777C31.3387 2.95352 31.4375 3.19197 31.4375 3.44061V11.6812C31.4375 11.9299 31.3387 12.1683 31.1629 12.3442C30.9871 12.52 30.7486 12.6187 30.5 12.6187Z" fill="#1D6687"/>
<path id="Vector_12" d="M38.7219 9.03748H30.5C30.2514 9.03748 30.0129 8.9387 29.8371 8.76289C29.6613 8.58707 29.5625 8.34862 29.5625 8.09998V3.41248C29.5625 3.16384 29.6613 2.92538 29.8371 2.74956C30.0129 2.57375 30.2514 2.47498 30.5 2.47498H38.7219C38.8986 2.47548 39.0715 2.52591 39.2208 2.62045C39.3701 2.715 39.4896 2.84981 39.5656 3.00935C39.6426 3.16872 39.6729 3.34662 39.653 3.52248C39.633 3.69834 39.5638 3.86497 39.4531 4.0031L38.0469 5.73748L39.4531 7.49998C39.5638 7.63811 39.633 7.80474 39.653 7.9806C39.6729 8.15645 39.6426 8.33435 39.5656 8.49373C39.491 8.65501 39.372 8.79177 39.2227 8.88804C39.0733 8.98431 38.8996 9.03614 38.7219 9.03748ZM31.4375 7.16248H36.7625L36.125 6.35623C35.9919 6.18995 35.9193 5.98329 35.9193 5.77029C35.9193 5.55728 35.9919 5.35063 36.125 5.18435L36.7719 4.3781H31.4375V7.16248ZM58.625 53.7469H2.375C2.12636 53.7469 1.8879 53.6481 1.71209 53.4723C1.53627 53.2964 1.4375 53.058 1.4375 52.8094C1.4375 52.5607 1.53627 52.3223 1.71209 52.1464C1.8879 51.9706 2.12636 51.8719 2.375 51.8719H58.625C58.8736 51.8719 59.1121 51.9706 59.2879 52.1464C59.4637 52.3223 59.5625 52.5607 59.5625 52.8094C59.5625 53.058 59.4637 53.2964 59.2879 53.4723C59.1121 53.6481 58.8736 53.7469 58.625 53.7469ZM44.5625 57.4969H6.125C5.87636 57.4969 5.6379 57.3981 5.46209 57.2223C5.28627 57.0464 5.1875 56.808 5.1875 56.5594C5.1875 56.3107 5.28627 56.0723 5.46209 55.8964C5.6379 55.7206 5.87636 55.6219 6.125 55.6219H44.5625C44.8111 55.6219 45.0496 55.7206 45.2254 55.8964C45.4012 56.0723 45.5 56.3107 45.5 56.5594C45.5 56.808 45.4012 57.0464 45.2254 57.2223C45.0496 57.3981 44.8111 57.4969 44.5625 57.4969ZM52.0625 57.4969H48.3688C48.1201 57.4969 47.8817 57.3981 47.7058 57.2223C47.53 57.0464 47.4313 56.808 47.4313 56.5594C47.4313 56.3107 47.53 56.0723 47.7058 55.8964C47.8817 55.7206 48.1201 55.6219 48.3688 55.6219H52.0625C52.3111 55.6219 52.5496 55.7206 52.7254 55.8964C52.9012 56.0723 53 56.3107 53 56.5594C53 56.808 52.9012 57.0464 52.7254 57.2223C52.5496 57.3981 52.3111 57.4969 52.0625 57.4969Z" fill="#1D6687"/>
</g>
</g>
</svg>
