<svg width="61" height="60" viewBox="0 0 61 60" fill="none" xmlns="http://www.w3.org/2000/svg">
<g id="it-services(1) 1">
<g id="Group 1485">
<path id="Vector" d="M56.6615 41.8608C55.7746 41.0347 54.4354 40.8347 53.3485 41.3739L40.3398 47.5304C40.3485 47.4173 40.3572 47.3043 40.3659 47.1825C40.4354 45.6782 39.6789 44.2347 38.3833 43.3999C37.8007 43.026 37.1224 42.7912 36.4094 42.7304L30.7311 42.2086C28.7659 42.0173 26.8876 41.5999 25.1398 40.9391C24.5485 40.7217 24.0354 40.513 23.5485 40.2782C23.0007 40.0173 22.4181 39.7739 21.7224 39.4956C20.4181 38.9999 19.0528 38.7739 17.6615 38.826L16.6441 38.8695L16.6007 37.8608C16.5659 37.0347 15.8528 36.3912 15.0441 36.426L4.24414 36.8608C3.42675 36.8956 2.78327 37.5912 2.80936 38.4173L3.50501 55.9478C3.53979 56.7565 4.20936 57.3912 5.01806 57.3912C5.03545 57.3912 5.04414 57.3912 5.06153 57.3912L15.8615 56.9565C16.2615 56.9478 16.6354 56.7739 16.905 56.4782C17.1746 56.1826 17.3137 55.7999 17.305 55.3999C17.305 55.3999 17.305 55.3999 17.305 55.3912L17.2702 54.4869L21.3485 55.7043C24.5398 56.6695 27.8267 57.1478 31.1485 57.1478C31.6094 57.1478 32.0789 57.1391 32.5398 57.1217L37.5659 56.9217C39.4441 56.8521 41.2789 56.2695 42.8702 55.2347L56.2702 46.5217C57.1137 45.9652 57.6181 45.0347 57.6181 44.0347C57.6181 43.1912 57.2789 42.4173 56.6615 41.8608ZM16.2789 55.8956C16.1659 56.0173 16.0094 56.0956 15.8354 56.0956L5.03545 56.5304C4.67892 56.5391 4.37458 56.2608 4.36588 55.913L3.67023 38.3912C3.66153 38.0347 3.93979 37.7304 4.28762 37.7217L15.0963 37.2956C15.105 37.2956 15.1137 37.2956 15.1224 37.2956C15.2789 37.2956 15.4354 37.3565 15.5572 37.4695C15.6876 37.5826 15.7572 37.7478 15.7659 37.9217L16.4007 53.913C16.4007 53.9217 16.4007 53.9217 16.4007 53.9217C16.4007 53.9304 16.4007 53.9391 16.4007 53.9478L16.4615 55.4434C16.4528 55.5999 16.392 55.7739 16.2789 55.8956ZM55.8007 45.8086L42.4007 54.5217C40.9398 55.4695 39.2528 56.0086 37.5311 56.0695L32.505 56.2695C28.8094 56.4173 25.1311 55.9565 21.592 54.8869L17.2268 53.5826L16.6702 39.7304L17.6876 39.6869C18.9659 39.6434 20.2094 39.8434 21.4007 40.2956C22.0789 40.5565 22.6354 40.7999 23.1659 41.0521C23.6702 41.2956 24.2181 41.5217 24.8267 41.7391C26.6441 42.4173 28.6007 42.8608 30.6354 43.0521L36.3224 43.5739C36.8963 43.626 37.4441 43.8086 37.9137 44.113C38.9485 44.7739 39.5572 45.9304 39.505 47.1478C39.4876 47.3304 39.4702 47.5304 39.4441 47.7304C39.4267 47.8347 39.3746 47.9304 39.2963 47.9999C39.2876 48.0086 39.2789 48.0086 39.2702 48.0173C39.2094 48.0521 39.1311 48.0782 39.0615 48.0869L31.505 48.3912C31.2702 48.3999 31.0876 48.5999 31.0963 48.8347C31.105 49.0608 31.2963 49.2434 31.5224 49.2434C31.5311 49.2434 31.5311 49.2434 31.5398 49.2434L39.0963 48.9391C39.2963 48.9304 39.4963 48.8695 39.6702 48.7739L39.6789 48.7652C39.6789 48.7652 39.6789 48.7652 39.6876 48.7652L53.7137 42.1304C54.4963 41.7478 55.4441 41.8869 56.0789 42.4782C56.5137 42.8782 56.7572 43.426 56.7572 44.026C56.7659 44.7565 56.4007 45.4173 55.8007 45.8086Z" fill="#1D6687" stroke="#1D6687"/>
<path id="Vector_2" d="M10.1313 48.9217C9.33999 48.9565 8.60956 49.2956 8.07043 49.8782C7.5313 50.4609 7.25304 51.2174 7.28782 52.0087C7.34869 53.6087 8.67043 54.8609 10.253 54.8609C10.2965 54.8609 10.3313 54.8609 10.3748 54.8609C11.1661 54.8261 11.9052 54.4869 12.4443 53.9043C12.9835 53.3217 13.2617 52.5652 13.227 51.7739C13.1922 50.9826 12.853 50.2435 12.2704 49.7043C11.6878 49.1739 10.94 48.8956 10.1313 48.9217ZM11.8096 53.3304C11.427 53.7478 10.9052 53.9826 10.34 54.0087C9.18347 54.0696 8.19217 53.1478 8.13999 51.9826C8.11391 51.4174 8.31391 50.8782 8.69652 50.4609C9.07912 50.0435 9.60086 49.8087 10.1661 49.7826C10.1922 49.7826 10.227 49.7826 10.253 49.7826C10.7835 49.7826 11.2878 49.9826 11.6878 50.3478C12.1052 50.7304 12.34 51.2522 12.3661 51.8174C12.3922 52.3739 12.1922 52.913 11.8096 53.3304Z" fill="#1D6687" stroke="#1D6687"/>
<path id="Vector_3" d="M24.505 5.75653C25.4616 5.75653 26.2703 5.07827 26.4616 4.17392H28.6442C28.8616 4.17392 29.0355 4.34783 29.0355 4.56522V8.56522C29.0355 8.8 29.2268 8.99131 29.4616 8.99131C29.6963 8.99131 29.8876 8.8 29.8876 8.56522V4.56522C29.8876 3.87827 29.3311 3.32174 28.6442 3.32174H26.4703C26.2703 2.4174 25.4703 1.73914 24.505 1.73914C23.4007 1.73914 22.4963 2.64348 22.4963 3.74783C22.4963 4.85218 23.4007 5.75653 24.505 5.75653ZM24.505 2.59131C25.1398 2.59131 25.6529 3.10435 25.6529 3.73914C25.6529 4.37392 25.1398 4.88696 24.505 4.88696C23.8703 4.88696 23.3572 4.37392 23.3572 3.73914C23.3572 3.10435 23.8703 2.59131 24.505 2.59131Z" fill="#1D6687" stroke="#1D6687"/>
<path id="Vector_4" d="M37.0006 8.99131C37.2354 8.99131 37.4267 8.8 37.4267 8.56522V4.56522C37.4267 4.34783 37.6006 4.17392 37.818 4.17392H40.0006C40.2006 5.07827 41.0006 5.75653 41.9571 5.75653C43.0615 5.75653 43.9658 4.85218 43.9658 3.74783C43.9658 2.64348 43.0615 1.73914 41.9571 1.73914C41.0006 1.73914 40.1919 2.4174 40.0006 3.32174H37.818C37.131 3.32174 36.5745 3.87827 36.5745 4.56522V8.56522C36.5658 8.8 36.7571 8.99131 37.0006 8.99131ZM41.9571 2.59131C42.5919 2.59131 43.1049 3.10435 43.1049 3.73914C43.1049 4.37392 42.5919 4.88696 41.9571 4.88696C41.3223 4.88696 40.8093 4.37392 40.8093 3.73914C40.8093 3.10435 41.3223 2.59131 41.9571 2.59131Z" fill="#1D6687" stroke="#1D6687"/>
<path id="Vector_5" d="M29.0356 30.9826V34.8C29.0356 35.0174 28.8616 35.1913 28.6443 35.1913H26.4703C26.2703 34.287 25.4703 33.6087 24.5138 33.6087C23.4095 33.6087 22.5051 34.513 22.5051 35.6174C22.5051 36.7217 23.4095 37.6261 24.5138 37.6261C25.4703 37.6261 26.279 36.9478 26.4703 36.0435H28.653C29.3399 36.0435 29.8964 35.487 29.8964 34.8V30.9826C29.8964 30.7478 29.7051 30.5565 29.4703 30.5565C29.2356 30.5565 29.0356 30.7391 29.0356 30.9826ZM24.5051 36.7652C23.8703 36.7652 23.3573 36.2522 23.3573 35.6174C23.3573 34.9826 23.8703 34.4696 24.5051 34.4696C25.1399 34.4696 25.653 34.9826 25.653 35.6174C25.653 36.2522 25.1399 36.7652 24.5051 36.7652Z" fill="#1D6687" stroke="#1D6687"/>
<path id="Vector_6" d="M37.0008 30.5479C36.766 30.5479 36.5747 30.7392 36.5747 30.9739V34.7913C36.5747 35.4783 37.1312 36.0348 37.8182 36.0348H40.0008C40.2008 36.9392 41.0008 37.6174 41.9573 37.6174C43.0617 37.6174 43.966 36.7131 43.966 35.6087C43.966 34.5044 43.0617 33.6 41.9573 33.6C41.0008 33.6 40.1921 34.2783 40.0008 35.1826H37.8182C37.6008 35.1826 37.4269 35.0087 37.4269 34.7913V30.9739C37.4269 30.7392 37.2356 30.5479 37.0008 30.5479ZM41.9573 34.4609C42.5921 34.4609 43.1051 34.9739 43.1051 35.6087C43.1051 36.2435 42.5921 36.7565 41.9573 36.7565C41.3225 36.7565 40.8095 36.2435 40.8095 35.6087C40.8095 34.9739 41.3225 34.4609 41.9573 34.4609Z" fill="#1D6687" stroke="#1D6687"/>
<path id="Vector_7" d="M45.2964 16.3391H48.3486C49.0356 16.3391 49.5921 15.7825 49.5921 15.0956V12.913C50.4964 12.713 51.1747 11.913 51.1747 10.9564C51.1747 9.8521 50.2704 8.94775 49.166 8.94775C48.0617 8.94775 47.1573 9.8521 47.1573 10.9564C47.1573 11.913 47.8356 12.7217 48.7399 12.913V15.0956C48.7399 15.313 48.566 15.4869 48.3486 15.4869H45.2964C45.0617 15.4869 44.8704 15.6782 44.8704 15.913C44.8704 16.1478 45.0617 16.3391 45.2964 16.3391ZM48.0095 10.9564C48.0095 10.3217 48.5225 9.80862 49.1573 9.80862C49.7921 9.80862 50.3051 10.3217 50.3051 10.9564C50.3051 11.5912 49.7921 12.1043 49.1573 12.1043C48.5225 12.1043 48.0095 11.5912 48.0095 10.9564Z" fill="#1D6687" stroke="#1D6687"/>
<path id="Vector_8" d="M47.1573 28.3999C47.1573 29.5043 48.0617 30.4086 49.166 30.4086C50.2704 30.4086 51.1747 29.5043 51.1747 28.3999C51.1747 27.4434 50.4964 26.6347 49.5921 26.4434V24.2608C49.5921 23.5739 49.0356 23.0173 48.3486 23.0173H45.2964C45.0617 23.0173 44.8704 23.2086 44.8704 23.4434C44.8704 23.6782 45.0617 23.8695 45.2964 23.8695H48.3486C48.566 23.8695 48.7399 24.0434 48.7399 24.2608V26.4434C47.8356 26.6434 47.1573 27.4434 47.1573 28.3999ZM50.3138 28.3999C50.3138 29.0347 49.8008 29.5478 49.166 29.5478C48.5312 29.5478 48.0182 29.0347 48.0182 28.3999C48.0182 27.7652 48.5312 27.2521 49.166 27.2521C49.8008 27.2521 50.3138 27.7652 50.3138 28.3999Z" fill="#1D6687" stroke="#1D6687"/>
<path id="Vector_9" d="M16.8705 12.913V15.0956C16.8705 15.7825 17.427 16.3391 18.1139 16.3391H21.3313C21.5661 16.3391 21.7574 16.1478 21.7574 15.913C21.7574 15.6782 21.5661 15.4869 21.3313 15.4869H18.1139C17.8965 15.4869 17.7226 15.313 17.7226 15.0956V12.913C18.627 12.713 19.3052 11.913 19.3052 10.9564C19.3052 9.8521 18.4009 8.94775 17.2965 8.94775C16.1922 8.94775 15.2878 9.8521 15.2878 10.9564C15.2878 11.913 15.9661 12.7217 16.8705 12.913ZM17.2965 9.79993C17.9313 9.79993 18.4444 10.313 18.4444 10.9478C18.4444 11.5825 17.9313 12.0956 17.2965 12.0956C16.6618 12.0956 16.1487 11.5825 16.1487 10.9478C16.1487 10.3217 16.6618 9.79993 17.2965 9.79993Z" fill="#1D6687" stroke="#1D6687"/>
<path id="Vector_10" d="M17.2965 30.4086C18.4009 30.4086 19.3052 29.5043 19.3052 28.3999C19.3052 27.4434 18.627 26.6347 17.7226 26.4434V24.2608C17.7226 24.0434 17.8965 23.8695 18.1139 23.8695H21.3313C21.5661 23.8695 21.7574 23.6782 21.7574 23.4434C21.7574 23.2086 21.5661 23.0173 21.3313 23.0173H18.1139C17.427 23.0173 16.8705 23.5739 16.8705 24.2608V26.4434C15.9661 26.6434 15.2878 27.4434 15.2878 28.3999C15.2878 29.513 16.1922 30.4086 17.2965 30.4086ZM17.2965 27.2521C17.9313 27.2521 18.4444 27.7652 18.4444 28.3999C18.4444 29.0347 17.9313 29.5478 17.2965 29.5478C16.6618 29.5478 16.1487 29.0347 16.1487 28.3999C16.1487 27.7652 16.6618 27.2521 17.2965 27.2521Z" fill="#1D6687" stroke="#1D6687"/>
<path id="Vector_11" d="M17.2965 21.5652C18.2531 21.5652 19.0618 20.8869 19.2531 19.9826H21.34V21.4C21.34 21.7043 21.5835 21.9478 21.8878 21.9478H23.5661C23.8096 22.9913 24.2183 23.9826 24.7835 24.8956L23.6096 26.0869C23.4009 26.3043 23.4009 26.6521 23.6096 26.8608L26.0531 29.3043C26.2704 29.513 26.6183 29.513 26.827 29.3043L28.0096 28.1217C28.9226 28.6869 29.9139 29.0956 30.9574 29.3391V31.0174C30.9574 31.3217 31.2009 31.5652 31.5052 31.5652H32.6878V33.6522C31.7835 33.8521 31.1052 34.6522 31.1052 35.6087C31.1052 36.713 32.0096 37.6174 33.1139 37.6174C34.2183 37.6174 35.1226 36.713 35.1226 35.6087C35.1226 34.6522 34.4444 33.8435 33.54 33.6522V31.5652H34.9574C35.2618 31.5652 35.5052 31.3217 35.5052 31.0174V29.3391C36.5487 29.0956 37.54 28.6869 38.4531 28.1217L39.6357 29.3043C39.8531 29.5217 40.2009 29.5217 40.4183 29.3043L42.8618 26.8608C43.0791 26.6435 43.0791 26.2956 42.8618 26.0782L41.6791 24.8956C42.2444 23.9826 42.6531 23 42.8965 21.9478H44.5748C44.8791 21.9478 45.1226 21.7043 45.1226 21.4V19.9826H47.2096C47.4096 20.8869 48.2096 21.5652 49.1661 21.5652C50.2704 21.5652 51.1748 20.6608 51.1748 19.5565C51.1748 18.4522 50.2704 17.5478 49.1661 17.5478C48.2096 17.5478 47.4009 18.2261 47.2096 19.1217H45.1226V17.9478C45.1226 17.6435 44.8791 17.4 44.5748 17.4H42.8965C42.6531 16.3565 42.2444 15.3652 41.6791 14.4521L42.8618 13.2695C42.9661 13.1652 43.027 13.0261 43.027 12.8782C43.027 12.7304 42.9661 12.5913 42.8618 12.4869L40.4183 10.0435C40.3139 9.93911 40.1748 9.90432 40.027 9.87824C39.8791 9.87824 39.74 9.93911 39.6357 10.0435L38.4531 11.2261C37.54 10.6608 36.5574 10.2522 35.5052 10.0087V8.3478C35.5052 8.04345 35.2618 7.79998 34.9574 7.79998H33.54V5.71302C34.4444 5.51302 35.1226 4.71302 35.1226 3.7565C35.1226 2.65215 34.2183 1.7478 33.1139 1.7478C32.0096 1.7478 31.1052 2.65215 31.1052 3.7565C31.1052 4.71302 31.7835 5.52172 32.6878 5.71302V7.79998H31.5052C31.2009 7.79998 30.9574 8.04345 30.9574 8.3478V10.0261C29.9139 10.2695 28.9226 10.6782 28.0096 11.2435L26.827 10.0608C26.6096 9.84345 26.2618 9.84345 26.0444 10.0608L23.6009 12.5043C23.3835 12.7217 23.3922 13.0695 23.6009 13.2782L24.7835 14.4608C24.2183 15.3739 23.8096 16.3565 23.5661 17.4087H21.8878C21.5835 17.4087 21.34 17.6521 21.34 17.9565V19.1304H19.2531C19.0531 18.2261 18.2531 17.5565 17.2965 17.5565C16.1922 17.5565 15.2878 18.4608 15.2878 19.5652C15.2878 20.6695 16.1922 21.5652 17.2965 21.5652ZM34.2618 35.6087C34.2618 36.2435 33.7487 36.7565 33.1139 36.7565C32.4791 36.7565 31.9661 36.2435 31.9661 35.6087C31.9661 34.9739 32.4791 34.4608 33.1139 34.4608C33.1139 34.4608 33.1139 34.4608 33.1226 34.4608C33.1226 34.4608 33.1226 34.4608 33.1313 34.4608C33.7487 34.4608 34.2618 34.9739 34.2618 35.6087ZM49.1661 18.4087C49.8009 18.4087 50.3139 18.9217 50.3139 19.5565C50.3139 20.1913 49.8009 20.7043 49.1661 20.7043C48.5313 20.7043 48.0183 20.1913 48.0183 19.5565C48.0096 18.9217 48.5313 18.4087 49.1661 18.4087ZM31.9574 3.7478C31.9574 3.11302 32.4705 2.59998 33.1052 2.59998C33.74 2.59998 34.2531 3.11302 34.2531 3.7478C34.2531 4.38259 33.74 4.89563 33.1052 4.89563C33.1052 4.89563 33.1052 4.89563 33.0965 4.89563C33.0965 4.89563 33.0965 4.89563 33.0878 4.89563C32.4791 4.89563 31.9574 4.38259 31.9574 3.7478ZM22.2009 18.2608H23.8183C24.0791 18.2608 24.3052 18.0782 24.3574 17.8261C24.5922 16.713 25.0183 15.6695 25.6444 14.7217C25.7835 14.5043 25.7574 14.2174 25.5748 14.0348L24.427 12.8869L26.4357 10.8782L27.5835 12.0174C27.7661 12.2 28.0531 12.2261 28.2705 12.0869C29.2183 11.4695 30.2618 11.0348 31.3748 10.8C31.627 10.7478 31.8183 10.5217 31.8183 10.2608V8.65215H33.1052H33.1139H33.1226H34.6531V10.2695C34.6531 10.5304 34.8357 10.7565 35.0878 10.8087C36.2009 11.0435 37.2444 11.4695 38.1922 12.0956C38.4096 12.2348 38.6965 12.2087 38.8791 12.0261L40.027 10.8869L42.0357 12.8956L40.8878 14.0435C40.7052 14.2261 40.6791 14.513 40.8183 14.7304C41.4357 15.6782 41.8704 16.7217 42.1052 17.8348C42.1574 18.0782 42.3835 18.2608 42.6444 18.2608H44.2618V21.0956H42.6444C42.3835 21.0956 42.1574 21.2782 42.1052 21.5304C41.8704 22.6435 41.4444 23.6869 40.8183 24.6348C40.6791 24.8521 40.7052 25.1391 40.8878 25.3217L42.0357 26.4695L40.027 28.4782L38.8791 27.3304C38.6965 27.1478 38.4096 27.1217 38.1922 27.2608C37.2444 27.8869 36.2009 28.313 35.0878 28.5478C34.8357 28.6 34.6531 28.8261 34.6531 29.0869V30.7043H33.1226H33.1139H33.1052H31.8183V29.0869C31.8183 28.8261 31.6357 28.6 31.3835 28.5478C30.2704 28.313 29.227 27.8869 28.2791 27.2608C28.0618 27.1217 27.7748 27.1478 27.5922 27.3304L26.4444 28.4782L24.4357 26.4695L25.5835 25.3217C25.7661 25.1391 25.8009 24.8521 25.6531 24.6348C25.0357 23.6869 24.6009 22.6435 24.3661 21.5304C24.3139 21.2782 24.0878 21.0956 23.827 21.0956H22.2096V18.2608H22.2009ZM17.2965 18.4087C17.9313 18.4087 18.4444 18.9217 18.4444 19.5565C18.4444 20.1913 17.9313 20.7043 17.2965 20.7043C16.6618 20.7043 16.1487 20.1913 16.1487 19.5565C16.1487 18.9217 16.6618 18.4087 17.2965 18.4087Z" fill="#1D6687" stroke="#1D6687"/>
<path id="Vector_12" d="M27.4422 19.6783L27.4422 19.6776C27.4338 16.4861 30.0342 13.8848 33.2356 13.8848C36.428 13.8848 39.0291 16.4859 39.0291 19.6783C39.0291 22.8706 36.428 25.4718 33.2356 25.4718C30.0433 25.4718 27.4422 22.8706 27.4422 19.6783ZM33.2356 26.8326C37.1824 26.8326 40.39 23.625 40.39 19.6783C40.39 15.7315 37.1824 12.5239 33.2356 12.5239C29.2889 12.5239 26.0813 15.7315 26.0813 19.6783C26.0813 23.625 29.2889 26.8326 33.2356 26.8326Z" fill="#1D6687" stroke="#1D6687" stroke-width="0.5"/>
</g>
</g>
</svg>
