<svg width="60" height="60" viewBox="0 0 60 60" fill="none" xmlns="http://www.w3.org/2000/svg">
<g id="satisfy" clip-path="url(#clip0_17_541)">
<path id="Vector" d="M42.6565 27.1875C42.6565 24.6843 41.9142 22.2373 40.5236 20.156C39.1329 18.0746 37.1562 16.4524 34.8436 15.4945C32.531 14.5365 29.9862 14.2859 27.5311 14.7742C25.076 15.2625 22.8208 16.4679 21.0508 18.2379C19.2808 20.0079 18.0753 22.263 17.587 24.7181C17.0986 27.1732 17.3492 29.718 18.3071 32.0307C19.265 34.3433 20.8872 36.32 22.9685 37.7107C25.0498 39.1014 27.4968 39.8437 30 39.8437C33.3555 39.84 36.5725 38.5053 38.9452 36.1327C41.318 33.76 42.6526 30.543 42.6565 27.1875ZM30 37.9687C27.8677 37.9687 25.7833 37.3363 24.0103 36.1517C22.2374 34.967 20.8556 33.2832 20.0396 31.3131C19.2236 29.3431 19.0101 27.1754 19.4262 25.084C19.8422 22.9927 20.869 21.0717 22.3768 19.5639C23.8846 18.0561 25.8056 17.0294 27.897 16.6134C29.9883 16.1974 32.1561 16.4109 34.1261 17.2269C36.0961 18.0429 37.7799 19.4248 38.9645 21.1978C40.1492 22.9707 40.7815 25.0552 40.7815 27.1875C40.7783 30.0459 39.6413 32.7863 37.6201 34.8075C35.5989 36.8287 32.8584 37.9656 30 37.9687Z" fill="#1D6687"/>
<path id="Vector_2" d="M38.574 26.5296C38.7923 26.1409 38.9067 25.7025 38.9063 25.2566C38.9036 24.9129 38.8312 24.5732 38.6936 24.2582C38.5561 23.9432 38.3561 23.6593 38.1059 23.4236C37.8557 23.1879 37.5603 23.0053 37.2376 22.8868C36.9149 22.7683 36.5716 22.7164 36.2283 22.7342L34.502 22.7327C34.5369 22.514 34.5482 22.2921 34.5358 22.0709C34.4523 21.308 34.2313 19.2896 32.5266 18.534C32.0624 18.3254 31.5498 18.2487 31.0449 18.3122C30.5399 18.3757 30.0623 18.5771 29.6643 18.8942C29.2889 19.2158 29 19.6262 28.8236 20.088C28.6473 20.5497 28.5892 21.0483 28.6547 21.5382C28.6578 21.5995 28.6617 21.904 28.6617 21.904C28.4746 22.2764 28.0354 22.9814 27.7518 23.4298C27.59 23.3051 27.3917 23.2372 27.1875 23.2365H23.9063C23.6576 23.2366 23.4192 23.3353 23.2434 23.5111C23.0675 23.687 22.9688 23.9254 22.9688 24.174V31.4062C22.9688 31.6549 23.0675 31.8933 23.2434 32.0691C23.4192 32.245 23.6576 32.3437 23.9063 32.3437H27.1875C27.3152 32.3436 27.4416 32.3172 27.5587 32.2662C27.6759 32.2152 27.7813 32.1407 27.8684 32.0473C27.9728 32.0632 28.0781 32.0724 28.1837 32.0749C28.1984 32.0749 28.2132 32.0747 28.2281 32.0745C28.4673 32.2218 28.7261 32.3346 28.9969 32.4096C29.1549 32.4521 29.3179 32.4737 29.4816 32.4739L35.0373 32.4755C35.7419 32.4796 36.4194 32.2042 36.9213 31.7096C37.4233 31.2151 37.7086 30.5417 37.7149 29.8371C38.0383 29.3921 38.2123 28.856 38.212 28.3059C38.212 28.2472 38.21 28.1888 38.2062 28.1311C38.4549 27.7234 38.5863 27.255 38.5859 26.7775C38.5859 26.6941 38.5819 26.6115 38.574 26.5296ZM26.25 25.1298C26.1735 25.3355 26.1339 25.553 26.1329 25.7724V30.173C26.1331 30.2721 26.1412 30.371 26.1571 30.4687H24.8437V25.1115H26.25V25.1298ZM36.2283 26.0217H36.0292C36.2269 26.043 36.4085 26.1405 36.5353 26.2937C36.6622 26.4468 36.7242 26.6434 36.7083 26.8416C36.6923 27.0398 36.5997 27.224 36.45 27.3549C36.3003 27.4857 36.1054 27.553 35.9068 27.5424H35.5699C35.672 27.5421 35.7732 27.5623 35.8673 27.6017C35.9615 27.6411 36.0468 27.699 36.1183 27.7719C36.1898 27.8449 36.2459 27.9314 36.2834 28.0263C36.3209 28.1213 36.3391 28.2228 36.3368 28.3249C36.3344 28.4269 36.3117 28.5275 36.2699 28.6207C36.2281 28.7138 36.1681 28.7977 36.0934 28.8672C36.0187 28.9368 35.9308 28.9908 35.8349 29.0259C35.739 29.061 35.6371 29.0765 35.5351 29.0716H35.0745C35.1765 29.0716 35.2776 29.0919 35.3716 29.1315C35.4657 29.1711 35.5509 29.2291 35.6222 29.3021C35.6935 29.3752 35.7494 29.4617 35.7868 29.5567C35.8241 29.6517 35.842 29.7531 35.8396 29.8552C35.8371 29.9572 35.8142 30.0577 35.7723 30.1507C35.7304 30.2437 35.6703 30.3275 35.5955 30.3969C35.5207 30.4664 35.4328 30.5202 35.3369 30.5551C35.2411 30.5901 35.1392 30.6055 35.0372 30.6005L29.4837 30.5989C29.2702 30.5152 29.0677 30.4061 28.8803 30.274C28.6378 30.1905 28.3798 30.1621 28.125 30.1909V25.7028C28.3666 25.5674 28.5998 25.4174 28.8232 25.2537C28.9259 25.0348 30.5367 22.6697 30.5367 22.2038V21.7198C30.5367 21.2429 30.4064 20.703 30.8297 20.363C30.9588 20.2566 31.1155 20.1892 31.2815 20.1689C31.4475 20.1486 31.6159 20.1761 31.7668 20.2482C32.4493 20.5507 32.6029 21.6445 32.6716 22.2719C32.5725 23.0682 32.3847 23.851 32.1119 24.6057L36.2283 24.6092C36.6729 24.6092 37.0313 24.8328 37.0313 25.2566C37.0262 25.4645 36.9387 25.6619 36.7882 25.8054C36.6376 25.9489 36.4362 26.0267 36.2283 26.0217ZM45.5327 14.6785L44.7732 20.8086C44.7547 20.9568 44.7719 21.1073 44.8234 21.2476C44.875 21.3878 44.9593 21.5137 45.0693 21.6147L47.1787 23.5515C47.3493 23.708 47.5717 23.7959 47.8032 23.7982C48.0347 23.8004 48.2589 23.717 48.4325 23.5638L50.5419 21.7049C50.6552 21.605 50.7427 21.4793 50.797 21.3384C50.8513 21.1975 50.8707 21.0456 50.8536 20.8955L50.1438 14.665C49.5401 14.8375 48.9189 14.9417 48.2919 14.9757L48.9351 20.6218L47.8255 21.5996L46.693 20.56L47.3846 14.9783C46.758 14.9479 46.1369 14.8473 45.5327 14.6785ZM42.5623 13.1561C41.9786 12.6887 41.4591 12.1464 41.0173 11.5431C39.3801 12.0223 37.9561 13.0474 36.9822 14.4479C37.5307 14.7503 38.0591 15.0877 38.5642 15.458C39.0262 14.8097 39.6224 14.2685 40.3123 13.8713C41.0023 13.474 41.7697 13.2301 42.5623 13.1561Z" fill="#1D6687"/>
<path id="Vector_3" d="M54.6062 11.545C54.1664 12.1453 53.6496 12.6852 53.0692 13.151C54.4583 13.2891 55.7461 13.9401 56.681 14.9767C57.6159 16.0134 58.1308 17.3613 58.1252 18.7573V26.1768C58.1265 26.1948 58.1207 26.2125 58.1089 26.2263C58.0972 26.24 58.0805 26.2485 58.0625 26.25H44.4978C44.5177 26.5603 44.5313 26.8723 44.5313 27.1875C44.5313 27.5027 44.5177 27.8147 44.4978 28.125H58.0625C58.5777 28.123 59.071 27.9168 59.4342 27.5516C59.7975 27.1863 60.0011 26.6919 60.0002 26.1768V18.7573C60.0023 17.1334 59.4778 15.5527 58.5052 14.2522C57.5326 12.9518 56.1645 12.0019 54.6062 11.545ZM47.8118 13.125C49.1098 13.1252 50.3787 12.7405 51.458 12.0195C52.5373 11.2985 53.3786 10.2736 53.8754 9.07451C54.3723 7.87539 54.5024 6.55586 54.2493 5.2828C53.9962 4.00973 53.3712 2.84032 52.4535 1.92245C51.5357 1.00457 50.3664 0.37946 49.0934 0.126168C47.8204 -0.127123 46.5008 0.00278128 45.3016 0.499454C44.1024 0.996126 43.0774 1.83726 42.3563 2.91648C41.6352 3.99569 41.2503 5.26452 41.2503 6.5625C41.2523 8.30219 41.9443 9.97003 43.1743 11.2003C44.4044 12.4305 46.0721 13.1227 47.8118 13.125ZM47.8118 1.875C48.739 1.87482 49.6453 2.14958 50.4163 2.66453C51.1873 3.17949 51.7882 3.91151 52.1432 4.76802C52.4981 5.62454 52.5911 6.56707 52.4103 7.47641C52.2295 8.38576 51.7832 9.22108 51.1277 9.87673C50.4721 10.5324 49.6369 10.9789 48.7276 11.1599C47.8183 11.3408 46.8757 11.248 46.0191 10.8933C45.1626 10.5385 44.4304 9.93771 43.9153 9.16683C43.4002 8.39596 43.1253 7.48964 43.1253 6.5625C43.1268 5.31995 43.6211 4.12873 44.4996 3.25003C45.3781 2.37132 46.5693 1.87684 47.8118 1.875ZM9.90744 46.5534L9.14773 52.6836C9.12938 52.8318 9.14671 52.9823 9.19826 53.1225C9.24982 53.2627 9.33411 53.3886 9.44412 53.4897L11.5535 55.4265C11.7241 55.583 11.9465 55.6709 12.178 55.6732C12.4095 55.6755 12.6337 55.592 12.8073 55.4388L14.9167 53.5799C15.03 53.4801 15.1175 53.3543 15.1718 53.2134C15.2261 53.0725 15.2455 52.9206 15.2284 52.7705L14.5187 46.54C13.915 46.7125 13.2938 46.8167 12.6668 46.8507L13.3099 52.4968L12.2003 53.4746L11.0678 52.435L11.7597 46.8533C11.133 46.8229 10.5117 46.7223 9.90744 46.5534Z" fill="#1D6687"/>
<path id="Vector_4" d="M18.9812 43.42C18.5414 44.0204 18.0246 44.5603 17.4442 45.026C18.8333 45.1642 20.121 45.8152 21.0558 46.8519C21.9907 47.8885 22.5056 49.2364 22.5 50.6324V58.0518C22.5013 58.0698 22.4954 58.0876 22.4837 58.1013C22.4719 58.115 22.4553 58.1235 22.4373 58.125H1.93726C1.91941 58.1233 1.90294 58.1147 1.89132 58.101C1.8797 58.0873 1.87385 58.0697 1.87501 58.0518V50.6324C1.86941 49.2365 2.38428 47.8886 3.3191 46.852C4.25392 45.8153 5.54155 45.1643 6.93059 45.0261C6.35021 44.5603 5.83352 44.0204 5.39376 43.4201C3.83551 43.877 2.46746 44.8269 1.49493 46.1273C0.522398 47.4278 -0.00215001 49.0085 6.62357e-06 50.6324V58.0518C-0.00087752 58.5669 0.202592 59.0613 0.565774 59.4265C0.928956 59.7918 1.42219 59.998 1.93726 60H22.4373C22.9524 59.9981 23.4458 59.7918 23.809 59.4266C24.1723 59.0614 24.3758 58.5669 24.375 58.0518V50.6324C24.3772 49.0085 23.8526 47.4277 22.8801 46.1273C21.9075 44.8269 20.5395 43.8769 18.9812 43.42Z" fill="#1D6687"/>
<path id="Vector_5" d="M18.75 38.4375C18.75 37.1396 18.3651 35.8708 17.6441 34.7916C16.923 33.7124 15.8981 32.8713 14.699 32.3746C13.4999 31.8779 12.1804 31.7479 10.9074 32.0011C9.63441 32.2542 8.46508 32.8792 7.54728 33.7969C6.62948 34.7147 6.00443 35.884 5.75116 37.1569C5.49789 38.4299 5.62778 39.7494 6.12441 40.9485C6.62104 42.1477 7.4621 43.1726 8.54123 43.8938C9.62037 44.6149 10.8891 44.9999 12.187 45C13.927 44.9981 15.5951 44.3061 16.8255 43.0758C18.0559 41.8455 18.748 40.1774 18.75 38.4375ZM12.187 43.125C11.26 43.1249 10.3537 42.8499 9.58293 42.3348C8.81213 41.8197 8.2114 41.0875 7.85668 40.231C7.50197 39.3745 7.40921 38.432 7.59013 37.5227C7.77105 36.6135 8.21753 35.7783 8.87311 35.1228C9.52868 34.4673 10.3639 34.0209 11.2732 33.84C12.1825 33.6592 13.1249 33.7521 13.9814 34.1069C14.8379 34.4617 15.57 35.0625 16.085 35.8333C16.6001 36.6042 16.875 37.5104 16.875 38.4375C16.8736 39.6804 16.3793 40.8719 15.5004 41.7507C14.6215 42.6295 13.4299 43.1238 12.187 43.125ZM45.5328 46.5535L44.7732 52.6836C44.7547 52.8318 44.7719 52.9823 44.8234 53.1226C44.875 53.2628 44.9593 53.3887 45.0694 53.4897L47.1787 55.4265C47.3493 55.583 47.5718 55.6709 47.8033 55.6732C48.0348 55.6755 48.2589 55.592 48.4325 55.4388L50.5419 53.5799C50.6552 53.4801 50.7427 53.3543 50.797 53.2134C50.8513 53.0725 50.8707 52.9206 50.8536 52.7705L50.1438 46.54C49.5401 46.7125 48.9189 46.8167 48.2919 46.8507L48.9351 52.4968L47.8255 53.4746L46.693 52.435L47.3846 46.8533C46.758 46.8229 46.1369 46.7223 45.5328 46.5535Z" fill="#1D6687"/>
<path id="Vector_6" d="M54.6062 43.42C54.1664 44.0203 53.6496 44.5603 53.0692 45.026C54.4583 45.1641 55.7461 45.8151 56.681 46.8518C57.6159 47.8884 58.1308 49.2364 58.1252 50.6323V58.0518C58.1265 58.0698 58.1207 58.0876 58.1089 58.1013C58.0972 58.115 58.0805 58.1235 58.0625 58.125H37.5625C37.5446 58.1233 37.5281 58.1147 37.5165 58.101C37.5049 58.0873 37.499 58.0697 37.5002 58.0518V50.6323C37.4946 49.2365 38.0095 47.8887 38.9442 46.852C39.879 45.8154 41.1666 45.1643 42.5556 45.026C41.9752 44.5603 41.4585 44.0203 41.0188 43.42C39.4605 43.877 38.0925 44.8269 37.1201 46.1273C36.1476 47.4278 35.6231 49.0085 35.6253 50.6323V58.0518C35.6243 58.5669 35.8278 59.0613 36.191 59.4265C36.5542 59.7918 37.0474 59.998 37.5625 60H58.0625C58.5777 59.998 59.071 59.7918 59.4342 59.4266C59.7975 59.0613 60.0011 58.5669 60.0002 58.0518V50.6323C60.0023 49.0085 59.4778 47.4277 58.5052 46.1273C57.5326 44.8268 56.1645 43.8769 54.6062 43.42Z" fill="#1D6687"/>
<path id="Vector_7" d="M54.3752 38.4375C54.3752 37.1396 53.9904 35.8708 53.2693 34.7917C52.5483 33.7125 51.5234 32.8714 50.3243 32.3746C49.1252 31.8779 47.8058 31.7479 46.5328 32.001C45.2598 32.2542 44.0905 32.8791 43.1727 33.7968C42.2549 34.7145 41.6298 35.8837 41.3764 37.1567C41.1231 38.4296 41.2529 39.7491 41.7495 40.9482C42.2461 42.1474 43.087 43.1724 44.1661 43.8936C45.2452 44.6148 46.5139 44.9998 47.8118 45C49.5518 44.9982 51.22 44.3062 52.4505 43.0759C53.681 41.8456 54.3731 40.1775 54.3752 38.4375ZM47.8118 43.125C46.8847 43.1248 45.9785 42.8497 45.2078 42.3346C44.4371 41.8194 43.8364 41.0872 43.4818 40.2307C43.1271 39.3741 43.0344 38.4317 43.2154 37.5224C43.3964 36.6132 43.8429 35.7781 44.4985 35.1226C45.1541 34.4671 45.9893 34.0208 46.8986 33.84C47.8079 33.6592 48.7503 33.7521 49.6068 34.1069C50.4633 34.4617 51.1953 35.0625 51.7103 35.8334C52.2253 36.6042 52.5002 37.5104 52.5002 38.4375C52.4989 39.6805 52.0045 40.8721 51.1255 41.7509C50.2465 42.6297 49.0547 43.1239 47.8118 43.125ZM9.90744 14.6784L9.14773 20.8086C9.12938 20.9568 9.14671 21.1073 9.19826 21.2475C9.24982 21.3878 9.33411 21.5136 9.44412 21.6147L11.5535 23.5515C11.7241 23.708 11.9465 23.7959 12.178 23.7982C12.4095 23.8005 12.6337 23.717 12.8073 23.5639L14.9167 21.7049C15.03 21.6051 15.1175 21.4793 15.1718 21.3384C15.2261 21.1975 15.2455 21.0456 15.2284 20.8955L14.5187 14.665C13.915 14.8375 13.2938 14.9417 12.6668 14.9757L13.3099 20.6218L12.2003 21.5996L11.0678 20.56L11.7597 14.9783C11.133 14.9479 10.5117 14.8473 9.90744 14.6784Z" fill="#1D6687"/>
<path id="Vector_8" d="M1.93702 28.125H15.5021C15.4822 27.8147 15.4686 27.5027 15.4686 27.1875C15.4686 26.8723 15.4822 26.5603 15.5021 26.25H1.93702C1.91917 26.2483 1.90269 26.2396 1.89108 26.226C1.87946 26.2123 1.87361 26.1947 1.87476 26.1768V18.7573C1.86916 17.3614 2.38404 16.0136 3.31886 14.9769C4.25367 13.9403 5.54131 13.2893 6.93034 13.151C6.34996 12.6853 5.83327 12.1453 5.39352 11.545C3.83526 12.0019 2.46721 12.9519 1.49468 14.2523C0.522154 15.5527 -0.00239415 17.1335 -0.000237517 18.7573V26.1768C-0.0011229 26.6918 0.202346 27.1862 0.565528 27.5515C0.928711 27.9167 1.42195 28.123 1.93702 28.125ZM17.4372 13.156C18.2299 13.23 18.9974 13.4739 19.6875 13.8712C20.3775 14.2684 20.9738 14.8097 21.4359 15.4581C21.9409 15.0877 22.4693 14.7503 23.0177 14.448C22.0437 13.0473 20.6198 12.0222 18.9824 11.543C18.5406 12.1463 18.021 12.6887 17.4372 13.156ZM12.1868 13.125C13.4848 13.1251 14.7536 12.7403 15.8329 12.0192C16.9121 11.2982 17.7533 10.2733 18.2501 9.07419C18.7469 7.87506 18.8769 6.55554 18.6237 5.28251C18.3706 4.00948 17.7456 2.84011 16.8278 1.92228C15.9101 1.00445 14.7407 0.379387 13.4677 0.126134C12.1947 -0.12712 10.8752 0.00281235 9.67602 0.499499C8.47685 0.996185 7.4519 1.83732 6.73078 2.91652C6.00967 3.99573 5.62477 5.26454 5.62477 6.5625C5.62679 8.30229 6.31877 9.97024 7.54894 11.2005C8.77911 12.4308 10.447 13.1229 12.1868 13.125ZM12.1868 1.875C13.1139 1.87491 14.0202 2.14975 14.7912 2.66476C15.5621 3.17977 16.163 3.91183 16.5178 4.76835C16.8727 5.62487 16.9656 6.56738 16.7848 7.4767C16.6039 8.38602 16.1575 9.22129 15.502 9.8769C14.8465 10.5325 14.0112 10.979 13.1019 11.1599C12.1926 11.3408 11.2501 11.248 10.3936 10.8932C9.53699 10.5385 8.80488 9.93765 8.28979 9.16679C7.7747 8.39592 7.49977 7.48962 7.49977 6.5625C7.50126 5.31984 7.99553 4.12849 8.87419 3.24975C9.75284 2.37101 10.9441 1.87662 12.1868 1.875Z" fill="#1D6687"/>
</g>
<defs>
<clipPath id="clip0_17_541">
<rect width="60" height="60" fill="white"/>
</clipPath>
</defs>
</svg>
