<svg width="64" height="65" viewBox="0 0 64 65" fill="none" xmlns="http://www.w3.org/2000/svg">
<g id="startup">
<g id="Group 1496">
<path id="Vector" d="M24.7215 45.8507C24.6078 45.8508 24.4962 45.8209 24.3979 45.7638C24.2995 45.7068 24.2181 45.6247 24.1618 45.5259C23.5174 44.3886 22.746 43.3668 21.8679 42.4888C20.9899 41.6107 19.9681 40.8393 18.8308 40.1949C18.6836 40.1113 18.5753 39.9729 18.5297 39.8099C18.484 39.6469 18.5046 39.4725 18.5869 39.3245L19.8295 37.0871C19.8703 37.013 19.9255 36.9479 19.9919 36.8954C20.0582 36.8429 20.1344 36.8042 20.2159 36.7816C20.2971 36.7581 20.3822 36.751 20.4663 36.761C20.5503 36.7709 20.6314 36.7975 20.7049 36.8394C22.1268 37.6333 23.4336 38.6175 24.5893 39.7648C25.7351 40.9227 26.7161 42.2327 27.5045 43.6582C27.5873 43.8071 27.6076 43.9829 27.5609 44.1468C27.5142 44.3107 27.4043 44.4494 27.2555 44.5324L25.0309 45.7685C24.9368 45.8228 24.8301 45.8511 24.7215 45.8507ZM20.0118 39.4028C21.031 40.0344 21.9591 40.7661 22.7755 41.5812C23.5919 42.3963 24.3223 43.3244 24.9539 44.3449L26.0604 43.7301C25.3923 42.62 24.5937 41.5939 23.6818 40.6737C22.7629 39.7601 21.7391 38.9587 20.6318 38.2861L20.0118 39.4028Z" fill="#1D6687"/>
<path id="Vector_2" d="M28.1709 47.0112C28.0397 47.0114 27.9115 46.9712 27.8038 46.8961C27.6962 46.821 27.6141 46.7147 27.5689 46.5914C26.749 44.3407 25.4469 42.2964 23.7538 40.6019C22.0591 38.9087 20.0149 37.6062 17.7643 36.7856C17.6074 36.7278 17.4793 36.6111 17.4071 36.4603C17.335 36.3095 17.3245 36.1365 17.3779 35.9781C19.3527 30.079 22.6765 24.722 27.085 20.3329C34.5918 12.826 44.5787 8.6233 55.2048 8.50006C55.2903 8.49885 55.3751 8.51479 55.4543 8.54694C55.5335 8.57909 55.6055 8.6268 55.6659 8.68723C55.7264 8.74767 55.7741 8.81962 55.8062 8.89881C55.8384 8.97801 55.8543 9.06285 55.8531 9.14831C55.7299 19.7757 51.5272 29.7614 44.0216 37.2682C39.6326 41.6772 34.2756 45.0014 28.3763 46.9765C28.3103 46.9998 28.2409 47.0115 28.1709 47.0112ZM24.6601 39.6943C26.3355 41.3692 27.6566 43.3643 28.5445 45.5607C34.03 43.6278 39.0094 40.4837 43.1128 36.3619C50.1977 29.3059 54.2951 19.7937 54.5553 9.79785C44.5593 10.0583 35.047 14.1562 27.9912 21.2417C23.8696 25.3452 20.7255 30.3246 18.7925 35.81C20.9896 36.6971 22.9853 38.0182 24.6601 39.6943Z" fill="#1D6687"/>
<path id="Vector_3" d="M53.0775 22.2198C52.9072 22.2198 52.7438 22.1524 52.6231 22.0324L42.3229 11.7322C42.206 11.6112 42.1413 11.4491 42.1428 11.2808C42.1443 11.1125 42.2118 10.9515 42.3308 10.8325C42.4498 10.7135 42.6107 10.646 42.779 10.6446C42.9473 10.6431 43.1094 10.7078 43.2305 10.8247L53.5306 21.1248C53.6201 21.2146 53.681 21.3288 53.7056 21.4531C53.7303 21.5774 53.7176 21.7063 53.6691 21.8234C53.6206 21.9405 53.5386 22.0406 53.4333 22.1111C53.328 22.1817 53.2042 22.2195 53.0775 22.2198ZM8.64224 36.2053C8.53994 36.2053 8.43912 36.1809 8.34816 36.1341C8.2572 36.0873 8.17875 36.0195 8.11934 35.9362C8.05993 35.8529 8.02128 35.7566 8.00663 35.6554C7.99197 35.5542 8.00172 35.4509 8.03506 35.3542C8.88214 32.8685 10.2883 30.6104 12.1453 28.7536C13.7508 27.1393 15.6605 25.8595 17.7638 24.9883C19.8672 24.1171 22.1225 23.6717 24.3992 23.678C24.5196 23.678 24.6376 23.7119 24.7397 23.7758C24.8417 23.8397 24.9238 23.9311 24.9764 24.0394C25.029 24.1477 25.0501 24.2686 25.0372 24.3884C25.0244 24.5081 24.9781 24.6218 24.9037 24.7165C22.4718 27.8108 20.5241 31.2565 19.1272 34.9357C19.0687 35.0865 18.9559 35.2098 18.8109 35.2813C18.6659 35.3529 18.4993 35.3674 18.3442 35.3221C15.2164 34.3842 11.8485 34.6757 8.92849 36.1372C8.83983 36.1823 8.7417 36.2056 8.64224 36.2053ZM23.0655 25.0169C19.2808 25.322 15.7298 26.9696 13.0529 29.6624C11.6945 31.0187 10.5948 32.6112 9.8078 34.3619C12.4784 33.3815 15.3833 33.2329 18.14 33.9357C19.3969 30.7659 21.052 27.7689 23.0655 25.0169ZM28.9356 56.5C28.8264 56.4998 28.7189 56.4718 28.6235 56.4186C28.5281 56.3653 28.4479 56.2886 28.3904 56.1956C28.3329 56.1027 28.3001 55.9966 28.2951 55.8875C28.2902 55.7783 28.3131 55.6697 28.3618 55.5719C29.8234 52.6514 30.115 49.2831 29.177 46.1549C29.1307 45.9997 29.1448 45.8328 29.2165 45.6876C29.2881 45.5424 29.412 45.4296 29.5634 45.3719C33.2421 43.9748 36.6874 42.0271 39.7813 39.5954C39.8758 39.5201 39.9897 39.473 40.1098 39.4597C40.23 39.4464 40.3514 39.4673 40.4601 39.52C40.5689 39.5728 40.6605 39.6552 40.7243 39.7578C40.7882 39.8605 40.8217 39.979 40.8211 40.0999C40.8274 42.3766 40.3821 44.6319 39.5109 46.7353C38.6396 48.8387 37.3598 50.7483 35.7455 52.3537C33.8886 54.2109 31.6305 55.6175 29.1449 56.4653C29.0777 56.4888 29.0069 56.5006 28.9356 56.5ZM30.5646 46.359C31.2681 49.1382 31.1166 52.029 30.1384 54.6913C31.8893 53.9044 33.4818 52.8047 34.8379 51.4462C37.5295 48.769 39.1769 45.2188 39.4835 41.4349C36.7314 43.448 33.7344 45.1026 30.5646 46.359ZM39.3038 30.1836C38.6296 30.1847 37.9618 30.0526 37.3388 29.7949C36.7159 29.5371 36.1499 29.1588 35.6736 28.6817C34.7118 27.7181 34.1717 26.4123 34.1717 25.0509C34.1717 23.6895 34.7118 22.3837 35.6736 21.42C37.6119 19.4804 40.9956 19.4791 42.9353 21.42C43.897 22.3837 44.4371 23.6895 44.4371 25.0509C44.4371 26.4123 43.897 27.7181 42.9353 28.6817C42.4586 29.1588 41.8925 29.5371 41.2693 29.7948C40.6461 30.0525 39.9782 30.1847 39.3038 30.1836ZM39.3038 21.1993C38.7977 21.1978 38.2963 21.2968 37.8287 21.4904C37.3612 21.6841 36.9367 21.9687 36.5798 22.3276C35.8591 23.0506 35.4543 24.0299 35.4543 25.0509C35.4543 26.0718 35.8591 27.0511 36.5798 27.7742C37.3029 28.4949 38.2822 28.8997 39.3031 28.8997C40.3241 28.8997 41.3034 28.4949 42.0264 27.7742C42.7472 27.0511 43.1519 26.0718 43.1519 25.0509C43.1519 24.0299 42.7472 23.0506 42.0264 22.3276C41.6698 21.9688 41.2455 21.6844 40.7781 21.4907C40.3108 21.297 39.8097 21.198 39.3038 21.1993ZM8.76547 56.2317C8.66012 56.2322 8.55626 56.2068 8.46314 56.1575C8.37001 56.1082 8.2905 56.0367 8.23168 55.9493C8.17286 55.8619 8.13656 55.7613 8.126 55.6565C8.11543 55.5517 8.13094 55.4459 8.17113 55.3485L12.4483 44.8546C12.9268 43.6858 13.7988 42.7211 14.9134 42.1273C16.0281 41.5336 17.3152 41.3481 18.5521 41.6031L18.5598 41.6043C19.5967 41.8168 20.5479 42.3303 21.2945 43.0805C22.0411 43.8308 22.55 44.7845 22.7574 45.8225C23.0075 47.057 22.8191 48.3401 22.2246 49.4506C21.6301 50.5611 20.6668 51.4294 19.5007 51.9057L9.00808 56.1842C8.931 56.2154 8.84864 56.2315 8.76547 56.2317ZM17.452 42.7725C16.633 42.7731 15.8328 43.0175 15.1532 43.4744C14.4735 43.9314 13.9453 44.5803 13.6357 45.3385L9.93488 54.4204L19.0155 50.7183C19.9038 50.3556 20.6377 49.6945 21.0911 48.8489C21.5445 48.0034 21.6889 47.0262 21.4994 46.0856C21.3408 45.2896 20.9503 44.5583 20.3769 43.9838C19.8036 43.4094 19.0731 43.0174 18.2774 42.8572L18.2697 42.8559C18.0008 42.7997 17.7267 42.7718 17.452 42.7725Z" fill="#1D6687"/>
<path id="Vector_4" d="M14.2726 50.7236C14.1672 50.7241 14.0634 50.6986 13.9702 50.6494C13.8771 50.6001 13.7976 50.5286 13.7388 50.4412C13.68 50.3538 13.6437 50.2532 13.6331 50.1484C13.6225 50.0436 13.638 49.9378 13.6782 49.8404L15.9811 44.191C16.2643 43.5009 16.7786 42.9308 17.436 42.5783C18.0934 42.2259 18.8529 42.113 19.5844 42.2591C20.2027 42.384 20.7706 42.6895 21.2171 43.1351C21.6636 43.5808 21.969 44.148 22.0952 44.7661C22.2429 45.4982 22.131 46.2589 21.7787 46.9174C21.4263 47.5759 20.8556 48.0911 20.1646 48.3745L14.5152 50.6773C14.4379 50.7078 14.3556 50.7235 14.2726 50.7236ZM18.949 43.4786C18.1813 43.4786 17.4689 43.9407 17.1698 44.6749L15.4433 48.9123L19.6794 47.1858C20.0626 47.0303 20.3855 46.7555 20.6001 46.402C20.8148 46.0486 20.9098 45.6353 20.871 45.2236C20.8323 44.8119 20.6618 44.4236 20.3849 44.1165C20.1081 43.8093 19.7395 43.5995 19.3341 43.5184H19.3302C19.2048 43.4919 19.0771 43.4786 18.949 43.4786Z" fill="#1D6687"/>
</g>
</g>
</svg>
