<svg width="60" height="60" viewBox="0 0 60 60" fill="none" xmlns="http://www.w3.org/2000/svg">
<g id="success(1)">
<path id="Vector" d="M49.1529 25.0754C51.6988 20.5427 53.1008 15.0588 53.1008 9.63375C53.1008 9.38511 53.002 9.14665 52.8262 8.97084C52.6504 8.79502 52.412 8.69625 52.1633 8.69625H44.2004V7.11656C45.7255 6.92215 46.9085 5.61703 46.9085 4.04004C46.9086 2.32934 45.5169 0.9375 43.8062 0.9375H16.1938C14.4831 0.9375 13.0912 2.32934 13.0912 4.04004C13.0912 5.61703 14.2742 6.92215 15.7993 7.11656V8.69625H7.83667C7.58803 8.69625 7.34957 8.79502 7.17376 8.97084C6.99794 9.14665 6.89917 9.38511 6.89917 9.63375C6.89917 15.0588 8.3012 20.5427 10.8471 25.0753C13.6841 30.1263 17.7548 33.698 22.628 35.419C23.5162 36.1992 24.4451 36.8372 25.4011 37.3246C25.2207 37.7685 25.128 38.2432 25.1282 38.7224C25.1282 39.8018 25.5987 40.7856 26.3673 41.5233C25.8757 46.0525 24.0435 48.878 19.3472 52.4093H15.845C14.0107 52.4093 12.5183 53.9016 12.5183 55.736C12.5183 57.5702 14.0107 59.0626 15.845 59.0626H43.7812C45.6156 59.0626 47.1078 57.5704 47.1078 55.7359C47.1078 53.9017 45.6156 52.4093 43.7812 52.4093H40.279C35.5828 48.878 33.7506 46.0526 33.259 41.5233C34.0277 40.7856 34.4981 39.8018 34.4981 38.7224C34.4981 38.2968 34.4236 37.879 34.2821 37.48C35.3496 36.9758 36.3855 36.2851 37.3716 35.4191C42.2449 33.6981 46.3158 30.1264 49.1529 25.0754ZM17.6744 7.14246H42.3255V20.6017C42.3255 27.6546 36.5223 36.602 30 36.602C23.4777 36.602 17.6744 27.6545 17.6744 20.6017V7.14246ZM51.2102 10.5712C50.9539 18.2679 47.5547 27.2699 40.5104 31.8054C42.8291 28.3795 44.2005 24.2388 44.2005 20.6017V10.5712H51.2102ZM14.9662 4.04004C14.9662 3.36328 15.5169 2.8125 16.1938 2.8125H43.8062C44.483 2.8125 45.0336 3.36316 45.0336 4.04004C45.0336 4.71691 44.483 5.26758 43.8062 5.26758H16.1938C15.5169 5.26746 14.9662 4.7168 14.9662 4.04004ZM8.78976 10.5712H15.7993V20.6017C15.7993 24.2389 17.1707 28.3794 19.4892 31.8053C12.4453 27.2696 9.04604 18.2678 8.78976 10.5712ZM45.2331 55.7359C45.2331 56.5363 44.5819 57.1875 43.7815 57.1875H15.8451C15.0446 57.1875 14.3934 56.5363 14.3934 55.7358C14.3934 54.9354 15.0446 54.2842 15.8451 54.2842H43.7814C44.5819 54.2843 45.2331 54.9354 45.2331 55.7359ZM37.2697 52.4093H22.3568C25.4645 49.7552 27.4454 46.9489 28.117 42.5797C28.6434 42.761 29.2151 42.8617 29.8132 42.8617C30.4113 42.8617 30.9831 42.761 31.5094 42.5797C32.1811 46.9489 34.1621 49.7552 37.2697 52.4093ZM32.6233 38.7224C32.6233 39.9709 31.3628 40.9867 29.8133 40.9867C28.2639 40.9867 27.0033 39.9709 27.0033 38.7224C27.0033 38.4872 27.0503 38.2559 27.1387 38.0346C28.0793 38.3262 29.0369 38.477 30.0001 38.477C30.8487 38.477 31.693 38.3596 32.525 38.1326C32.5897 38.3241 32.6233 38.5223 32.6233 38.7224ZM40.9474 19.6437C40.9474 13.6072 36.0364 8.69625 30 8.69625C23.9635 8.69625 19.0526 13.6072 19.0526 19.6437C19.0526 25.6801 23.9635 30.5911 30 30.5911C36.0364 30.5911 40.9474 25.6801 40.9474 19.6437ZM20.9276 19.6437C20.9276 14.6412 24.9974 10.5712 30 10.5712C35.0026 10.5712 39.0724 14.6411 39.0724 19.6437C39.0724 24.6463 35.0025 28.7161 30 28.7161C24.9975 28.7161 20.9276 24.6462 20.9276 19.6437ZM36.1338 18.4584C36.9493 17.6384 36.9457 16.3076 36.1256 15.492C35.3054 14.6763 33.9746 14.6801 33.1576 15.5017L27.9759 20.735L25.7598 18.5189C24.9408 17.7 23.6079 17.7 22.7886 18.5191C21.9696 19.3384 21.9697 20.6712 22.7887 21.4902L26.4955 25.197C26.8923 25.5938 27.4199 25.8122 27.9811 25.8122C28.5423 25.8122 29.0699 25.5938 29.4666 25.197C30.9125 23.751 35.351 19.2491 36.1338 18.4584ZM28.1407 23.871C28.0861 23.9256 28.0237 23.9371 27.9811 23.9371C27.9384 23.9371 27.8761 23.9255 27.8214 23.8709L24.1146 20.1641C24.0723 20.1217 24.0486 20.0643 24.0486 20.0044C24.0486 19.9446 24.0723 19.8872 24.1146 19.8448C24.1356 19.8237 24.1605 19.8071 24.188 19.7957C24.2154 19.7844 24.2449 19.7786 24.2746 19.7787C24.3325 19.7787 24.3902 19.8007 24.4343 19.8445L27.3165 22.7269C27.4036 22.814 27.5069 22.8831 27.6206 22.9302C27.7344 22.9773 27.8563 23.0016 27.9794 23.0016H27.9818C28.1053 23.0013 28.2275 22.9766 28.3415 22.9289C28.4554 22.8812 28.5588 22.8115 28.6457 22.7237L34.4889 16.8223C34.5306 16.7805 34.5871 16.7569 34.6462 16.7567C34.7052 16.7565 34.7619 16.7798 34.8039 16.8213C34.8246 16.8421 34.8411 16.8668 34.8523 16.894C34.8635 16.9211 34.8693 16.9502 34.8693 16.9796C34.8692 17.009 34.8634 17.0381 34.8521 17.0652C34.8408 17.0924 34.8242 17.117 34.8034 17.1377C34.0178 17.9309 29.582 22.4297 28.1407 23.871Z" fill="#1D6687"/>
</g>
</svg>
